<?xml version="1.0" encoding="UTF-8"?>
<svg width="16" height="16" version="1.1" xmlns="http://www.w3.org/2000/svg">
 <rect x="4.4000001" y="3.2" width="7.1999998" height="4" style="fill:#2a3235"/>
 <rect x="5" y="7" width="6" height="8" style="fill:#2a3235"/>
 <rect x="4" y="3" width="1" height="12" style="fill:#3b494f"/>
 <rect x="7.1999998" width="1.6" height="2.4000001" ry=".80000001" style="fill:#bac9d1"/>
 <rect x="11" y="3" width="1" height="12" style="fill:#3b494f"/>
 <path d="m4 3v-1.6s0.4 0 0.4-0.4h7.2c0 0.4 0.4 0.4 0.4 0.4v1.6z" style="fill:#3b494f"/>
 <rect x="3" y="2" width="10" height="2" ry=".40000001" style="fill:#3b494f"/>
 <rect x="3" y="14" width="10" height="2" ry=".40000001" style="fill:#3b494f"/>
 <path d="m6 5h4v1h-4z" style="fill:#bac9d1"/>
 <path d="m6 8h1v1h-1z" style="fill:#c0c8cc"/>
 <path d="m9 8v1h1v-1h-1zm-3 2v1h1v-1h-1zm3 0v1h1v-1h-1zm-3 2v1h1v-1h-1zm3 0v1h1v-1h-1z" style="fill:#3b494f"/>
</svg>
