<?xml version="1.0" encoding="UTF-8"?>
<svg xmlns="http://www.w3.org/2000/svg" height="16" width="16" version="1.1">
 <circle r="7" style="fill:#3b494f" cx="8" cy="8"/>
 <path style="fill:#2a3235" d="m2 10c0 2 2 3 2 3v-1l2 2 1-1s1-1 2.4237288 0l0.5762712 1 1-1c1-1 2 0 2 0s1-1 1-4 0-5-6-5-6 1-6 6z"/>
 <rect style="fill:#c0c8cc" rx="2" ry="1.7430613" height="7" width="10" y="5" x="3"/>
 <rect style="fill:#3b494f" ry=".5" height="3" width="1" y="7" x="4"/>
 <rect style="fill:#3b494f" ry=".5" height="3" width="1" y="7" x="10"/>
 <path style="fill:#2a3235" d="m6 5c0 2 2 3 2 3v-3s-2-0.6666667-2 0zm2 0s2 4 5 4l0.338983-2.2578125c0.143375-0.954953-1.237989-2.2055766-2.338983-2.0811706z"/>
 <path style="fill:#3b494f" d="m1 6h13s0-3-2-3h-7c-2 0-2 2-2 2h-2z"/>
 <path style="fill:#40484c" d="m15 4-0.625 2.4980469c-0.586919-0.4959652-1.375-0.4980469-1.375-0.4980469v4s2 0 2-2l1-4z"/>
 <path style="fill:#bac9d1" d="m3 5h9v-2s0-1-1-1h-7c-1 0-1 1-1 1z"/>
 <circle style="fill:#40484c" cx="4.5" cy="3.5"/>
 <circle style="fill:#40484c" cx="10.5" cy="3.5"/>
</svg>
