<?xml version="1.0" encoding="UTF-8"?>
<svg xmlns="http://www.w3.org/2000/svg" width="16" height="16" version="1">
 <rect fill="#40484c" width="16" height="16" x="0" y="0" rx="8" ry="8"/>
 <g fill="#c0c8cc">
  <path d="m7 10h2v2h-2m0-2"/>
  <path d="m4 7h2v2h-2m0-2"/>
  <path d="m4 10h2v2h-2m0-2"/>
 </g>
 <g fill="#c0c8cc">
  <path d="m7 4h2v2h-2m0-2"/>
  <path d="m10 7h2v2h-2m0-2"/>
  <path d="m10 4h2v2h-2m0-2"/>
 </g>
 <g fill="#c0c8cc">
  <path d="m7 7h2v2h-2m0-2"/>
  <path d="m4 4h2v2h-2m0-2"/>
  <path d="m10 10h2v2h-2m0-2"/>
 </g>
</svg>
