<?xml version="1.0" encoding="UTF-8"?>
<svg width="16" height="16" version="1.1" xmlns="http://www.w3.org/2000/svg">
 <rect width="16" height="16" rx=".80000001" ry=".80000001" style="fill:#2a3235"/>
 <path d="m8 9a6 2.5 0 0 0-6 2.5 6 2.5 0 0 0 6 2.5 6 2.5 0 0 0 6-2.5 6 2.5 0 0 0-6-2.5zm0 1a5 1.5 0 0 1 5 1.5 5 1.5 0 0 1-5 1.5 5 1.5 0 0 1-5-1.5 5 1.5 0 0 1 5-1.5z" style="fill:#3b494f"/>
 <rect x="7" y="3" width="2" height="9" style="fill:#3b494f"/>
 <path d="m5 5h6l-3-3z" style="fill:#3b494f"/>
</svg>
