<?xml version="1.0" encoding="UTF-8"?>
<svg xmlns="http://www.w3.org/2000/svg" width="16" height="16" version="1.1">
 <path style="fill:#bac9d1" d="M 4,0 C 3.446,0 3,0.446 3,1 V 15 H 4 V 11 H 5 V 14 H 6 V 11 H 7 V 13 H 8 V 11 H 9 V 14 H 10 V 11 H 11 V 15 H 12 V 11 H 13 V 14 H 14 V 5 L 10,4 9,0 Z"/>
 <rect style="fill:#3b494f" width="3" height="3" x="4" y="6"/>
 <path style="fill:#40484c" d="M 9,0 V 4 C 9,4.554 9.446,5 10,5 H 14 Z"/>
 <path style="fill:#40484c" d="M 8,8 V 9 H 13 V 8 Z M 4,2 V 3 H 7 V 2 Z M 4,4 V 5 H 8 V 4 Z M 8,6 V 7 H 13 V 6 Z"/>
</svg>
