<?xml version="1.0" encoding="UTF-8"?>
<svg xmlns="http://www.w3.org/2000/svg" width="16" height="16" version="1">
 <circle style="fill:#3b494f" cx="3" cy="10" r="3"/>
 <circle style="fill:#3b494f" cx="7" cy="6" r="5"/>
 <circle style="fill:#40484c" cx="4" cy="11" r="3"/>
 <circle style="fill:#40484c" cx="8" cy="7" r="5"/>
 <circle style="fill:#bac9d1" cx="5" cy="12" r="3"/>
 <circle style="fill:#bac9d1" cx="11.5" cy="10.5" r="4.5"/>
 <path style="fill:#bac9d1" d="M 5,15 V 12 H 11.5 V 15 Z"/>
 <circle style="fill:#c0c8cc" cx="9" cy="8" r="5"/>
 <path style="fill:none;stroke:#3b494f;stroke-linecap:round;stroke-linejoin:round" d="M 6.5,8.5 V 7.5 C 6.5,6.5 7.5,5.5 8.5,5.5 H 9.5 M 9.5,9.5 7.5,10.5 9.5,11.5 M 8.5,4.5 10.5,5.5 8.5,6.5 M 11.5,7.5 V 8.5 C 11.5,9.5 10.5,10.5 9.5,10.5 H 8.5"/>
</svg>
