<?xml version="1.0" encoding="UTF-8"?>
<svg xmlns="http://www.w3.org/2000/svg" width="16" height="16" version="1">
 <rect style="fill:#40484c" width="16" height="14" x="-16" y="-15" rx=".857" ry=".75" transform="matrix(0,-1,-1,0,0,0)"/>
 <path style="fill:#2a3235" d="m 11.68,5.000225 4.32,0 L 16,11 11.68,11 C 10.7488,11 10,10.553767 10,10.000287 L 10,6.0004625 C 10,5.4462333 10.7488,5 11.68,5 Z"/>
 <path fill="#c0c8cc" d="m14 8.0002a1 1 0 0 1 -1 1 1 1 0 0 1 -1 -1 1 1 0 0 1 1 -1 1 1 0 0 1 1 1z"/>
</svg>
