<?xml version="1.0" encoding="UTF-8"?>
<svg xmlns="http://www.w3.org/2000/svg" width="16" height="16" version="1.1">
 <rect style="fill:#40484c" width="5" height="16" x="-15" y="0" rx=".769" ry=".8" transform="matrix(0,-1,1,0,0,0)"/>
 <path style="opacity:0.5;stroke:#253239;stroke-linecap:round" d="m 10.100312,11.5 1.2,2"/>
 <path style="opacity:0.5;stroke:#253239;stroke-linecap:round" d="m 11.700312,11.5 1.2,2"/>
 <path style="opacity:0.5;stroke:#253239;stroke-linecap:round" d="m 13.300312,11.5 1.2,2"/>
 <path style="opacity:0.5;stroke:#253239;stroke-linecap:round" d="m 8.5003119,11.5 1.2,2"/>
 <circle style="fill:#bac9d1" cx="-6" cy="12" r="1" transform="scale(-1,1)"/>
 <circle style="fill:#c0c8cc" cx="-4" cy="12" r="1" transform="scale(-1,1)"/>
 <circle style="fill:#bac9d1" cx="-2" cy="12" r="1" transform="scale(-1,1)"/>
 <rect style="fill:#40484c" width="5" height="16" x="-10" y="0" rx=".769" ry=".8" transform="matrix(0,-1,1,0,0,0)"/>
 <path style="opacity:0.5;stroke:#253239;stroke-linecap:round" d="m 10.100312,6.5 1.2,2"/>
 <path style="opacity:0.5;stroke:#253239;stroke-linecap:round" d="m 11.700312,6.5 1.2,2"/>
 <path style="opacity:0.5;stroke:#253239;stroke-linecap:round" d="m 13.300312,6.5 1.2,2"/>
 <path style="opacity:0.5;stroke:#253239;stroke-linecap:round" d="m 8.5003119,6.5 1.2,2"/>
 <circle style="fill:#c0c8cc" cx="-4" cy="7" r="1" transform="scale(-1,1)"/>
 <circle style="fill:#bac9d1" cx="-2" cy="7" r="1" transform="scale(-1,1)"/>
 <rect style="fill:#40484c" width="5" height="16" x="-5" y="0" rx=".769" ry=".8" transform="matrix(0,-1,1,0,0,0)"/>
 <path style="opacity:0.5;stroke:#253239;stroke-linecap:round" d="m 10.100312,1.5 1.2,2"/>
 <path style="opacity:0.5;stroke:#253239;stroke-linecap:round" d="m 11.700312,1.5 1.2,2"/>
 <path style="opacity:0.5;stroke:#253239;stroke-linecap:round" d="m 13.300312,1.5 1.2,2"/>
 <path style="opacity:0.5;stroke:#253239;stroke-linecap:round" d="m 8.5003119,1.5 1.2,2"/>
 <circle style="fill:#bac9d1" cx="-2" cy="2" r="1" transform="scale(-1,1)"/>
</svg>
