<?xml version="1.0" encoding="UTF-8"?>
<svg xmlns="http://www.w3.org/2000/svg" width="16" height="16" version="1">
 <circle style="fill:#3b494f" cx="8" cy="8" r="8"/>
 <circle style="fill:#40484c" cx="8" cy="8" r="6"/>
 <path style="fill:#bac9d1" d="M 4.625,4.625 8,8 H 6.3125 Z"/>
 <path style="fill:#2a3235" d="M 4.625,4.625 8,8 V 6.3125 Z"/>
 <path style="fill:#bac9d1" d="M 11.375,11.375 8,8 h 1.6875 z"/>
 <path style="fill:#2a3235" d="M 11.375,11.375 8,8 v 1.6875 z"/>
 <path style="fill:#bac9d1" d="M 11.375,4.625 8,8 V 6.3125 Z"/>
 <path style="fill:#2a3235" d="M 11.375,4.625 8,8 h 1.6875 z"/>
 <path style="fill:#bac9d1" d="M 4.625,11.375 8,8 v 1.6875 z"/>
 <path style="fill:#2a3235" d="M 4.625,11.375 8,8 H 6.3125 Z"/>
 <path style="fill:#bac9d1" d="M 8,2.0000001 V 8 L 6.5,6.5 Z"/>
 <path style="fill:#2a3235" d="M 8,2.0000001 V 8 L 9.5,6.5 Z"/>
 <path style="fill:#bac9d1" d="M 8,14 V 8 l 1.5,1.5 z"/>
 <path style="fill:#2a3235" d="M 8,14 V 8 L 6.5,9.5 Z"/>
 <path style="fill:#bac9d1" d="M 14,8 H 8 L 9.5,6.5 Z"/>
 <path style="fill:#2a3235" d="M 14,8 H 8 l 1.5,1.5 z"/>
 <path style="fill:#bac9d1" d="M 2.0000001,8 H 8 L 6.5,9.5 Z"/>
 <path style="fill:#2a3235" d="M 2.0000001,8 H 8 L 6.5,6.5 Z"/>
</svg>
