<?xml version="1.0" encoding="UTF-8"?>
<svg width="16" height="16" version="1.1" xmlns="http://www.w3.org/2000/svg">
 <path d="m1.5 4h13c-0.6481 3.9374-0.6851 7.9338 0 12h-13c0.68681-4.0729 0.64625-8.0686 0-12z" fill="#40484c"/>
 <path d="m8 1v3h6.5l-1.5-3z" fill="#3b494f"/>
 <path d="m3 1h5v3h-6.5z" fill="#bac9d1"/>
 <path d="m14.5 4-6.5-1v-3l5 1z" fill="#bac9d1"/>
 <path d="m5.5 10.75c0.01453 1.1075 1.1293 1.9993 2.5 2 1.3707-6e-4 2.4855-0.8925 2.5-2-0.7492 0.5491-1.6154 0.6636-2.5 0.6667-0.88465-0.0031-1.7508-0.1176-2.5-0.6667z" fill="#2a3235"/>
 <circle cx="3.75" cy="10.75" r=".75" fill="#40484c"/>
 <circle cx="12.25" cy="10.75" r=".75" fill="#40484c"/>
 <circle cx="5" cy="8.5" r="1.5" fill="#2a3235"/>
 <circle cx="4.5" cy="8" r=".5" fill="#c0c8cc"/>
 <circle cx="11" cy="8.5" r="1.5" fill="#2a3235"/>
 <circle cx="10.5" cy="8" r=".5" fill="#c0c8cc"/>
</svg>
