<?xml version="1.0" encoding="UTF-8"?>
<svg width="16" height="16" version="1.1" xmlns="http://www.w3.org/2000/svg">
 <rect x="0" y="0" width="16" height="16" rx="2" ry="2" style="fill:#c0c8cc"/>
 <rect x="1" y="1" width="14" height="12" style="fill:#bac9d1"/>
 <rect x="1" y="7" width="14" height="6" style="fill:#40484c"/>
 <rect x="1" y="5" width="2" height="2" style="fill:#40484c"/>
 <rect x="5" y="5" width="2" height="2" style="fill:#40484c"/>
 <rect x="9" y="5" width="2" height="2" style="fill:#40484c"/>
 <rect x="13" y="5" width="2" height="2" style="fill:#40484c"/>
 <rect x="11" y="3" width="2" height="2" style="fill:#40484c"/>
 <rect x="3" y="3" width="2" height="2" style="fill:#40484c"/>
 <rect x="1" y="7" width="2" height="2" style="fill:#bac9d1"/>
 <rect x="5" y="7" width="2" height="2" style="fill:#bac9d1"/>
 <rect x="9" y="7" width="2" height="2" style="fill:#bac9d1"/>
 <rect x="13" y="7" width="2" height="2" style="fill:#bac9d1"/>
 <rect x="11" y="9" width="2" height="2" style="fill:#bac9d1"/>
 <rect x="3" y="9" width="2" height="2" style="fill:#bac9d1"/>
</svg>
