<?xml version="1.0" encoding="UTF-8"?>
<svg xmlns="http://www.w3.org/2000/svg" width="16" height="16" version="1">
 <rect style="fill:#40484c" width="16" height="16" x="0" y="0" rx=".8" ry=".8"/>
 <path style="fill:#c0c8cc" d="m8 2a4 4 0 0 0 -4 4 4 4 0 0 0 4 4 4 4 0 0 0 4 -4 4 4 0 0 0 -4 -4zm0 2a2 2 0 0 1 2 2 2 2 0 0 1 -2 2 2 2 0 0 1 -2 -2 2 2 0 0 1 2 -2z"/>
 <rect style="fill:#c0c8cc" width="2" height="6" x="7" y="-14" transform="scale(1,-1)"/>
 <rect style="fill:#c0c8cc" width="2" height="2" x="9" y="-13" transform="scale(1,-1)"/>
</svg>
