<?xml version="1.0" encoding="UTF-8"?>
<svg xmlns="http://www.w3.org/2000/svg" width="16" height="16" version="1">
 <path fill="#c0c8cc" d="m8 0c-4.432 0-8 3.568-8 8s3.568 8 8 8 8-3.568 8-8c0-4.4319-3.568-8-8-8z"/>
 <path fill="#3b494f" d="m8 2a6 6 0 0 0 -6 6 6 6 0 0 0 6 6 6 6 0 0 0 6 -6 6 6 0 0 0 -6 -6zm1 2a4 4 0 0 1 4 4 4 4 0 0 1 -4 4 4 4 0 0 1 -4 -4 4 4 0 0 1 4 -4z"/>
 <rect fill="#40484c" width="4" height="4" x="1" y="6" rx=".8" ry=".8"/>
 <rect fill="#40484c" width="3" height="3" x="11" y="9" rx=".6" ry=".6"/>
 <rect fill="#40484c" width="2" height="2" x="11" y="3" rx=".4" ry=".4"/>
</svg>
