<?xml version="1.0" encoding="UTF-8"?>
<svg xmlns="http://www.w3.org/2000/svg" width="16" height="16" version="1.1">
 <path style="fill:#3b494f" d="m8-1e-7a8 8 0 0 0 -8 8h8z"/>
 <path style="fill:#3b494f" d="m8 16a8 8 0 0 0 8 -8h-8z"/>
 <path style="fill:#2a3235" d="m8-1e-7a8 8 0 0 1 8 8h-8z"/>
 <path style="fill:#40484c" d="m8 16a8 8 0 0 1 -8 -8h8z"/>
 <circle style="fill:#c0c8cc" cx="8" cy="8" r="5"/>
 <path style="fill:#3b494f" d="M 0,8 1.5,10 3,8 Z"/>
 <path style="fill:#3b494f" d="M 16,8 14.5,6 13,8 Z"/>
 <path style="fill:#40484c" d="M 8,16 10,14.5 8,13 Z"/>
 <path style="fill:#2a3235" d="m 8,-1e-7 -2,1.5 2,1.5 z"/>
</svg>
