<?xml version="1.0" encoding="UTF-8"?>
<svg xmlns="http://www.w3.org/2000/svg" width="16" height="16" version="1">
 <rect style="fill:#c0c8cc" width="16" height="16" rx=".8" ry=".8"/>
 <path style="fill:#40484c" d="m5 8.5 0.5-0.5h1.5v1h-1.5z"/>
 <circle style="fill:#40484c" cx="7.5" cy="8.5" r="1.5"/>
 <circle style="fill:#3b494f" cx="3.5" cy="8.5" r="1.5"/>
 <path style="fill:#40484c" d="m7.5 7-0.5-0.5v-2.5h1v2.5z"/>
 <circle style="fill:#3b494f" cx="7.5" cy="3.5" r="1.5"/>
 <path style="fill:#40484c" d="m9 3.5 0.5-0.5h2.5v1h-2.5z"/>
 <circle style="fill:#bac9d1" cx="12.5" cy="3.5" r="1.5"/>
 <circle style="fill:#c0c8cc" cx="6.5" cy="12.5" r="1.5"/>
 <path style="fill:#40484c" d="m12.5 5 0.5 0.5v6.5h-1v-6.5z"/>
 <path style="fill:#40484c" d="m8 12.5 0.5-0.5h3.5v1h-3.5z"/>
 <circle style="fill:#3b494f" cx="12.5" cy="12.5" r="1.5"/>
 <path style="fill:#40484c" d="m9 9v1l1.4 1.4h1v-1l-1.4-1.4z"/>
</svg>
