<?xml version="1.0" encoding="UTF-8"?>
<svg xmlns="http://www.w3.org/2000/svg" width="48" height="48" version="1.1">
 <circle style="opacity:0.2" cx="24" cy="25" r="20"/>
 <circle style="fill:#2a3235" cx="24" cy="24" r="20"/>
 <path style="opacity:0.1;fill:#c0c8cc" d="M 24,4 A 20,20 0 0 0 4,24 20,20 0 0 0 4.0215,24.582 20,20 0 0 1 24,5 20,20 0 0 1 43.979,24.418 20,20 0 0 0 44,24 20,20 0 0 0 24,4 Z"/>
 <ellipse style="opacity:0.2" cx="11.5" cy="29" rx="6.5" ry="8"/>
 <ellipse style="fill:#c0c8cc" cx="11.5" cy="28" rx="6.5" ry="8"/>
 <ellipse style="fill:#40484c" cx="14" cy="27.5" rx="3" ry="3.5"/>
 <ellipse style="opacity:0.2" cx="24" cy="28" rx="8" ry="9"/>
 <ellipse style="fill:#c0c8cc" cx="24" cy="27" rx="8" ry="9"/>
 <ellipse style="fill:#40484c" cx="26.5" cy="26" rx="3.5" ry="4"/>
 <ellipse style="fill:#2a3235" cx="26.5" cy="26" rx="1.5" ry="2"/>
 <ellipse style="fill:#2a3235" cx="14" cy="27.5" rx="1" ry="1.5"/>
</svg>
