<?xml version="1.0" encoding="UTF-8"?>
<svg xmlns="http://www.w3.org/2000/svg" width="48" height="48" version="1">
 <path style="fill:#3b494f" d="M 6,6 C 4.892,6 4,6.892 4,8 V 34.1 H 44 V 8 C 44,6.892 43.108,6 42,6 Z"/>
 <path fill="#2a3235" d="M 6,42 C 4.892,42 4,41.108 4,40 V 34 H 44 V 40 C 44,41.108 43.108,42 42,42 Z"/>
 <path fill="#c0c8cc" opacity=".1" d="M 6,6 C 4.892,6 4,6.892 4,8 V 9 C 4,7.892 4.892,7 6,7 H 42 C 43.108,7 44,7.892 44,9 V 8 C 44,6.892 43.108,6 42,6 Z"/>
 <path opacity=".2" d="M 4,40 V 41 C 4,42.108 4.892,43 6,43 H 42 C 43.108,43 44,42.108 44,41 V 40 C 44,41.108 43.108,42 42,42 H 6 C 4.892,42 4,41.108 4,40 Z"/>
 <rect style="opacity:0.2" width="6" height="6" x="9" y="31" rx="1" ry="1"/>
 <rect style="fill:#c0c8cc" width="6" height="6" x="9" y="30" rx="1" ry="1"/>
 <rect style="opacity:0.2" width="6" height="6" x="17" y="31" rx="1" ry="1"/>
 <rect style="fill:#c0c8cc" width="6" height="6" x="17" y="30" rx="1" ry="1"/>
 <rect style="opacity:0.2" width="6" height="6" x="25" y="31" rx="1" ry="1"/>
 <rect style="fill:#c0c8cc" width="6" height="6" x="25" y="30" rx="1" ry="1"/>
 <rect style="opacity:0.2" width="6" height="6" x="33" y="31" rx="1" ry="1"/>
 <rect style="fill:#c0c8cc" width="6" height="6" x="33" y="30" rx="1" ry="1"/>
</svg>
