<?xml version="1.0" encoding="UTF-8"?>
<svg xmlns="http://www.w3.org/2000/svg" width="48" height="48" version="1.1">
 <rect style="opacity:0.2" width="36" height="40" x="6" y="5" rx="3" ry="3"/>
 <rect style="fill:#2a3235" width="36" height="40" x="6" y="4" rx="3" ry="3"/>
 <circle style="opacity:0.2" cx="24" cy="25" r="13"/>
 <path style="fill:#40484c" d="M 24,24 H 11 c 0,-7.179702 5.820298,-13 13,-13 z"/>
 <path style="fill:#3b494f" d="M 24,24 H 11 c 0,7.179702 5.820298,13 13,13 z"/>
 <path style="fill:#3b494f" d="m 24,24 h 13 c 0,7.179702 -5.820298,13 -13,13 z"/>
 <path style="fill:#c0c8cc" d="M 24,24 H 37 C 37,16.820298 31.179702,11 24,11 Z"/>
 <circle style="fill:#3b494f" cx="24" cy="24" r="11"/>
 <circle style="fill:#2a3235" cx="24" cy="24" r="6"/>
 <path style="opacity:0.2;fill:#c0c8cc" d="M 24 11 A 13 13 0 0 0 11 24 A 13 13 0 0 0 11.021484 24.580078 A 13 13 0 0 1 24 12 A 13 13 0 0 1 36.978516 24.419922 A 13 13 0 0 0 37 24 A 13 13 0 0 0 24 11 z"/>
 <path style="opacity:0.1;fill:#c0c8cc" d="M 9 4 C 7.338 4 6 5.338 6 7 L 6 8 C 6 6.338 7.338 5 9 5 L 39 5 C 40.662 5 42 6.338 42 8 L 42 7 C 42 5.338 40.662 4 39 4 L 9 4 z"/>
</svg>
