<?xml version="1.0" encoding="UTF-8"?>
<svg xmlns="http://www.w3.org/2000/svg" width="48" height="48" version="1">
 <rect fill="#3b494f" width="40" height="40" x="4" y="4" rx="2" ry="2"/>
 <path opacity=".2" d="m12 7.9941v24h12v0.006l12-12h-12l12-12h-12v-0.00586h-12zm12 24.006h-12l12 12 12-12h-12z"/>
 <path fill="#c0c8cc" opacity=".2" d="m6 4c-1.108 0-2 0.892-2 2v1c0-1.108 0.892-2 2-2h36c1.108 0 2 0.892 2 2v-1c0-1.108-0.892-2-2-2h-36z"/>
 <path opacity=".2" d="m6 45c-1.108 0-2-0.892-2-2v-1c0 1.108 0.892 2 2 2h36c1.108 0 2-0.892 2-2v1c0 1.108-0.892 2-2 2h-36z"/>
 <path fill="#c0c8cc" d="m36 31h-12v12z"/>
 <path fill="#c0c8cc" d="m36 19h-12v12z"/>
 <path fill="#40484c" d="m36 7h-12v12z"/>
 <path fill="#c0c8cc" d="m12 31h12v12z"/>
 <rect fill="#c0c8cc" width="12" height="24" x="12" y="7"/>
</svg>
