<?xml version="1.0" encoding="UTF-8"?>
<svg width="48" height="48" version="1.1" xmlns="http://www.w3.org/2000/svg">
 <path d="m7 44h34v1h-34z" opacity=".2"/>
 <path d="m7 13h34c-1.9854 10.29-2.0145 20.623 0 31h-34c1.9911-10.307 2.0088-20.64 0-31z" fill="#40484c"/>
 <path d="m24 7v6h17l-5-6z" fill="#3b494f"/>
 <path d="m25 10v1l10.666 2h5.334z" opacity=".2"/>
 <path d="m12 7h12v6h-17z" fill="#bac9d1"/>
 <path d="m12.065 7-0.899 1h13.834v-1z" fill="#c0c8cc" opacity=".2"/>
 <path d="m41 13-16-3-1-6 12 3 5 6" fill="#bac9d1"/>
 <path d="m24 4 0.1738 1.043 12.879 3.2207-1.0527-1.2637z" fill="#c0c8cc" opacity=".2"/>
 <path d="m18 32c0.0342 2.3733 2.7721 3.9986 6 4 3.2279-0.0013 5.9658-1.6267 6-4-1.7643 1.1767-3.9167 1.4934-6 1.5-2.0833-0.0066-4.2357-0.3233-6-1.5z" opacity=".2"/>
 <path d="m18 31c0.0342 2.3733 2.7721 3.9986 6 4 3.2279-0.0013 5.9658-1.6267 6-4-1.7643 1.1767-3.9167 1.4934-6 1.5-2.0833-0.0066-4.2357-0.3233-6-1.5z" fill="#2a3235"/>
 <ellipse cx="13" cy="31" rx="2" ry="2" opacity=".2"/>
 <ellipse cx="13" cy="30" rx="2" ry="2" fill="#40484c"/>
 <ellipse cx="35" cy="31" rx="2" ry="2" opacity=".2"/>
 <ellipse cx="35" cy="30" rx="2" ry="2" fill="#40484c"/>
 <ellipse cx="16.5" cy="25.5" rx="3.5" ry="3.5" opacity=".2"/>
 <ellipse cx="16.5" cy="24.5" rx="3.5" ry="3.5" fill="#2a3235"/>
 <ellipse cx="15.5" cy="23.5" rx="1" ry="1" fill="#c0c8cc"/>
 <ellipse cx="31.5" cy="25.5" rx="3.5" ry="3.5" opacity=".2"/>
 <ellipse cx="31.5" cy="24.5" rx="3.5" ry="3.5" fill="#2a3235"/>
 <ellipse cx="30.5" cy="23.5" rx="1" ry="1" fill="#c0c8cc"/>
</svg>
