<?xml version="1.0" encoding="UTF-8"?>
<svg xmlns="http://www.w3.org/2000/svg" width="48" height="48" version="1">
 <rect fill="#40484c" width="40" height="40" x="4" y="4" rx="2" ry="2"/>
 <path fill="#c0c8cc" opacity=".2" d="m6 4c-1.108 0-2 0.892-2 2v1c0-1.108 0.892-2 2-2h36c1.108 0 2 0.892 2 2v-1c0-1.108-0.892-2-2-2h-36z"/>
 <path opacity=".2" d="m6 45c-1.108 0-2-0.892-2-2v-1c0 1.108 0.892 2 2 2h36c1.108 0 2-0.892 2-2v1c0 1.108-0.892 2-2 2h-36z"/>
 <path fill="#2a3235" d="m4 14h4v2h-4z"/>
 <path fill="#3b494f" d="m16 14h4v2h-4z"/>
 <rect fill="#2a3235" width="8" height="2" x="20" y="14"/>
 <rect fill="#3b494f" width="8" height="2" x="28" y="14"/>
 <rect fill="#2a3235" width="8" height="2" x="36" y="14"/>
 <path fill="#2a3235" d="m4 12h4v2h-4z"/>
 <rect fill="#2a3235" width="8" height="2" x="16" y="12"/>
 <rect fill="#3b494f" width="8" height="2" x="24" y="12"/>
 <rect fill="#2a3235" width="8" height="2" x="32" y="12"/>
 <path fill="#3b494f" d="m40 12h4v2h-4z"/>
 <rect fill="#2a3235" width="8" height="2" x="-44" y="-33" transform="scale(-1)"/>
 <rect fill="#3b494f" width="8" height="2" x="-36" y="-33" transform="scale(-1)"/>
 <rect fill="#2a3235" width="8" height="2" x="-28" y="-33" transform="scale(-1)"/>
 <rect fill="#3b494f" width="8" height="2" x="-20" y="-33" transform="scale(-1)"/>
 <rect fill="#2a3235" width="8" height="2" x="-12" y="-33" transform="scale(-1)"/>
 <path fill="#2a3235" d="m44 35h-4v-2h4z"/>
 <rect fill="#3b494f" width="8" height="2" x="-40" y="-35" transform="scale(-1)"/>
 <rect fill="#2a3235" width="8" height="2" x="-32" y="-35" transform="scale(-1)"/>
 <rect fill="#3b494f" width="8" height="2" x="-24" y="-35" transform="scale(-1)"/>
 <rect fill="#2a3235" width="8" height="2" x="-16" y="-35" transform="scale(-1)"/>
 <path fill="#3b494f" d="m8 35h-4v-2h4z"/>
 <rect fill="#c0c8cc" width="2" height="18" x="9" y="12"/>
 <rect fill="#c0c8cc" width="2" height="18" x="13" y="12"/>
 <rect fill="#c0c8cc" width="6" height="2" x="9" y="13"/>
 <rect fill="#c0c8cc" width="6" height="2" x="9" y="19"/>
 <rect fill="#c0c8cc" width="6" height="2" x="9" y="25"/>
 <path fill="#c0c8cc" transform="matrix(.97493 0 0 1 4.6285 -.36479)" d="m28.075 7.3648 0.45649 1.1563 1.1886-0.36404-0.6194 1.0778 1.0257 0.70234-1.2289 0.18774 0.09041 1.2398-0.91297-0.84372-0.91297 0.84372 0.09041-1.2398-1.2289-0.18774 1.0257-0.70234-0.6194-1.0778 1.1886 0.36404z"/>
</svg>
