<?xml version="1.0" encoding="UTF-8"?>
<svg xmlns="http://www.w3.org/2000/svg" width="48" height="48" version="1">
 <path fill="#c0c8cc" d="m40 42v-36c0-1.108-0.892-2-2-2h-28c-1.108 0-2 0.892-2 2v36c0 1.108 0.892 2 2 2h28c1.108 0 2-0.892 2-2z"/>
 <path fill="#2a3235" d="m13 11h22v2h-22z"/>
 <path fill="#2a3235" d="m13 16h22v2h-22z"/>
 <path fill="#2a3235" d="m13 21h22v2h-22z"/>
 <path fill="#2a3235" d="m13 26h22v2h-22z"/>
 <path fill="#2a3235" d="m13 31h22v2h-22z"/>
 <path fill="#2a3235" d="m13 36h22v2h-22z"/>
 <path fill="#c0c8cc" opacity=".2" d="m10 4c-1.108 0-2 0.892-2 2v1c0-1.108 0.892-2 2-2h28c1.108 0 2 0.892 2 2v-1c0-1.108-0.892-2-2-2z"/>
 <path opacity=".2" d="m8 42v1c0 1.108 0.892 2 2 2h28c1.108 0 2-0.892 2-2v-1c0 1.108-0.892 2-2 2h-28c-1.108 0-2-0.892-2-2z"/>
</svg>
