<?xml version="1.0" encoding="UTF-8"?>
<svg width="48" height="48" version="1" xmlns="http://www.w3.org/2000/svg">
 <rect transform="matrix(0,-1,-1,0,0,0)" x="-45" y="-40" width="40" height="32" rx="2" ry="2" style="opacity:.2"/>
 <rect transform="matrix(0,-1,-1,0,0,0)" x="-44" y="-40" width="40" height="32" rx="2" ry="2" style="fill:#2a3235"/>
 <rect transform="matrix(0,-1,-1,0,0,0)" x="-33" y="-36" width="24" height="20" ry="3" style="opacity:.2"/>
 <rect transform="matrix(0,-1,-1,0,0,0)" x="-32" y="-36" width="24" height="20" ry="3" style="fill:#c0c8cc"/>
 <rect transform="matrix(0,-1,-1,0,0,0)" x="-41" y="-32" width="24" height="20" ry="3" style="opacity:.2"/>
 <rect transform="matrix(0,-1,-1,0,0,0)" x="-40" y="-32" width="24" height="20" ry="3" style="fill:#c0c8cc"/>
 <path d="m10 4c-1.108 0-2 0.892-2 2v1c0-1.108 0.892-2 2-2h28c1.108 0 2 0.892 2 2v-1c0-1.108-0.892-2-2-2h-28z" style="fill:#c0c8cc;opacity:.1"/>
 <rect x="14" y="20" width="16" height="2" style="fill:#40484c"/>
 <rect x="14" y="24" width="6" height="2" style="fill:#40484c"/>
 <rect x="14" y="28" width="16" height="2" style="fill:#40484c"/>
 <rect x="14" y="32" width="10" height="2" style="fill:#40484c"/>
 <rect x="18" y="10" width="12" height="2" style="fill:#40484c"/>
 <rect x="18" y="14" width="16" height="2" style="fill:#40484c"/>
 <rect x="4" y="17" width="40" height="4" rx="1" ry="1" style="opacity:.2"/>
 <rect x="4" y="16" width="40" height="4" rx="1" ry="1" style="fill:#3b494f"/>
</svg>
