<?xml version="1.0" encoding="UTF-8"?>
<svg xmlns="http://www.w3.org/2000/svg" width="48" height="48" version="1.1">
 <circle style="opacity:0.2" cx="24" cy="25" r="20"/>
 <circle style="fill:#2a3235" cx="24" cy="24" r="20"/>
 <circle style="opacity:0.2" cx="25.5" cy="23.5" r="15.5"/>
 <circle style="fill:#c0c8cc" cx="25.5" cy="22.5" r="15.5"/>
 <path style="fill:#40484c" d="M 21,13 V 32 L 37,22.499999 Z"/>
 <path style="fill:#c0c8cc;opacity:0.1" d="M 24 4 A 20 20 0 0 0 4 24 A 20 20 0 0 0 4.0351562 24.5 A 20 20 0 0 1 24 5 A 20 20 0 0 1 43.982422 24.25 A 20 20 0 0 0 44 24 A 20 20 0 0 0 24 4 z"/>
</svg>
