<?xml version="1.0" encoding="UTF-8"?>
<svg xmlns="http://www.w3.org/2000/svg" width="48" height="48" version="1.1">
 <circle style="opacity:0.2" cx="24" cy="25" r="20"/>
 <circle style="fill:#40484c" cx="24" cy="24" r="20"/>
 <circle style="opacity:0.2;fill:none;stroke:#253239;stroke-width:3" cx="24" cy="25" r="10.5"/>
 <path style="opacity:0.2;fill:#c0c8cc" d="M 24,4 A 20,20 0 0 0 4,24 20,20 0 0 0 4.0215,24.582 20,20 0 0 1 24,5 20,20 0 0 1 43.979,24.418 20,20 0 0 0 44,24 20,20 0 0 0 24,4 Z"/>
 <circle style="fill:none;stroke:#bac9d1;stroke-width:3" cx="24" cy="24" r="10.5"/>
 <path style="opacity:0.2" d="m 31,13 a 5,5 0 0 0 -5,5 5,5 0 0 0 5,5 5,5 0 0 0 5,-5 5,5 0 0 0 -5,-5 z m -16,2 a 5,5 0 0 0 -5,5 5,5 0 0 0 5,5 5,5 0 0 0 5,-5 5,5 0 0 0 -5,-5 z m 9,7 a 3,3 0 0 0 -3,3 3,3 0 0 0 3,3 3,3 0 0 0 3,-3 3,3 0 0 0 -3,-3 z m 2,8 a 5,5 0 0 0 -5,5 5,5 0 0 0 5,5 5,5 0 0 0 5,-5 5,5 0 0 0 -5,-5 z"/>
 <circle style="fill:#c0c8cc" cx="15" cy="19" r="5"/>
 <circle style="fill:#c0c8cc" cx="31" cy="17" r="5"/>
 <circle style="fill:#c0c8cc" cx="26" cy="34" r="5"/>
 <circle style="fill:#c0c8cc" cx="24" cy="24" r="3"/>
</svg>
