<?xml version="1.0" encoding="UTF-8"?>
<svg width="48" height="48" version="1.1" xmlns="http://www.w3.org/2000/svg">
 <rect x="3.9999998" y="4" width="40" height="40" rx="2" ry="2" style="fill:#40484c"/>
 <path d="m44 42v-36c0-1.108-0.892-2-2-2h-18v40h18c1.108 0 2-0.892 2-2z" style="fill:#3b494f"/>
 <path d="m6 4.0002c-1.108 0-2 0.892-2 2v1c0-1.108 0.892-2 2-2h36c1.108 0 2 0.892 2 2v-1c0-1.108-0.892-2-2-2z" fill="#c0c8cc" opacity=".2"/>
 <path d="m6 45.0002c-1.108 0-2-0.892-2-2v-1c0 1.108 0.892 2 2 2h36c1.108 0 2-0.892 2-2v1c0 1.108-0.892 2-2 2z" opacity=".2"/>
 <path d="m21 3.0002c-1 0-1 1.0286-1 1.0286v16.971l2.5-1.543 2.5 1.543v-16.971c0-1.029-1-1.029-1-1.029z" style="fill:#2a3235"/>
 <path d="m21 3c-0.999999 0-1 1.014437-1 1.014437v0.985563s1e-6 -1.014437 1-1.014437h3s1 2.936e-4 1 1.014437v-0.985563c0-1.0141434-1-1.014437-1-1.014437z" style="fill:#c0c8cc;opacity:.2"/>
 <path d="m22.5 19.457031-2.5 1.542969v1l2.5-1.542969 2.5 1.542969v-1l-2.5-1.542969z" style="opacity:.2"/>
</svg>
