<?xml version="1.0" encoding="UTF-8"?>
<svg width="32" height="32" version="1.1" xmlns="http://www.w3.org/2000/svg">
 <rect x="2" y="3" width="28" height="28" ry="6" style="opacity:.2"/>
 <rect x="2" y="2" width="28" height="28" ry="6" style="fill:#40484c"/>
 <path d="m6 6v22h6v-17h4v17h10v-6h-4v-16z" style="opacity:.1"/>
 <path d="m6 5v22h6v-17h4v17h10v-6h-4v-16z" style="fill:#2a3235"/>
 <path d="m8 2c-3.324 0-6 2.676-6 6v1c0-3.324 2.676-6 6-6h16c3.324 0 6 2.676 6 6v-1c0-3.324-2.676-6-6-6h-16z" style="fill:#c0c8cc;opacity:.2"/>
</svg>
