<?xml version="1.0" encoding="UTF-8"?>
<svg width="32" height="32" version="1.1" xmlns="http://www.w3.org/2000/svg">
 <rect x="2" y="3" width="28" height="28" rx="4" ry="4" style="opacity:.2"/>
 <rect x="2" y="2" width="28" height="28" rx="4" ry="4" style="fill:#3b494f"/>
 <rect x="13" y="9" width="2" height="15" style="opacity:.2"/>
 <rect x="13" y="8" width="2" height="15" style="fill:#40484c"/>
 <rect x="15" y="12" width="15" height="9" style="opacity:.2"/>
 <rect x="15" y="11" width="15" height="9" style="fill:#bac9d1"/>
 <rect x="12" y="11" width="4" height="11" ry="0" style="opacity:.2"/>
 <rect x="12" y="10" width="4" height="11" ry="0" style="fill:#40484c"/>
 <path d="m13 16h-4v1h-2v1h-1v13h2v-7l1.0000003-1e-6 -3e-7 -2.999999h1v-1h3z" style="opacity:.2"/>
 <path d="m13 15h-4v1h-2v1h-1v13h2v-7l1.0000003-1e-6 -3e-7 -2.999999h1v-1h3z" style="fill:#bac9d1"/>
 <rect x="14" y="14" width="16" height="5" style="opacity:.2"/>
 <rect x="14" y="13" width="16" height="5" style="fill:#bac9d1"/>
 <rect x="12" y="13" width="4" height="7" style="opacity:.2"/>
 <rect x="12" y="12" width="4" height="7" style="fill:#bac9d1"/>
 <path d="m13 14v2h2v-2zm0 3v2h2v-2z" style="opacity:.2"/>
 <path d="m13 13v2h2v-2zm0 3v2h2v-2z" style="fill:#c0c8cc"/>
 <rect x="2" y="3" width="28" height="28" rx="4" ry="4" style="opacity:.2"/>
 <rect x="2" y="2" width="28" height="28" rx="4" ry="4" style="fill:#3b494f"/>
 <rect x="13" y="9" width="2" height="15" style="opacity:.2"/>
 <rect x="13" y="8" width="2" height="15" style="fill:#40484c"/>
 <rect x="15" y="12" width="15" height="9" style="opacity:.2"/>
 <rect x="15" y="11" width="15" height="9" style="fill:#bac9d1"/>
 <rect x="12" y="11" width="4" height="11" ry="0" style="opacity:.2"/>
 <path d="m13 16h-4v1h-2v1h-1v13h2v-7l1.0000003-1e-6 -3e-7 -2.999999h1v-1h3z" style="opacity:.2"/>
 <path d="m15 11v1h15v-1h-15z" style="fill:#c0c8cc;opacity:.1"/>
 <rect x="12" y="10" width="4" height="11" ry="0" style="fill:#40484c"/>
 <path d="m13 15h-4v1h-2v1h-1v13h2v-7l1.0000003-1e-6 -3e-7 -2.999999h1v-1h3z" style="fill:#bac9d1"/>
 <path d="m9 15v1h4v-1h-4zm0 1h-2v1h2v-1zm-2 1h-1v1h1v-1z" style="fill:#c0c8cc;opacity:.2"/>
 <rect x="14" y="14" width="16" height="5" style="opacity:.2"/>
 <rect x="14" y="13" width="16" height="5" style="fill:#bac9d1"/>
 <path d="m14 13v1h16v-1h-16z" style="fill:#c0c8cc;opacity:.2"/>
 <rect x="12" y="13" width="4" height="7" style="opacity:.2"/>
 <rect x="12" y="12" width="4" height="7" style="fill:#bac9d1"/>
 <path d="m13 14v2h2v-2zm0 3v2h2v-2z" style="opacity:.2"/>
 <path d="m13 13v2h2v-2zm0 3v2h2v-2z" style="fill:#c0c8cc"/>
 <path d="m13 8v1h2v-1h-2z" style="fill:#c0c8cc;opacity:.1"/>
 <path d="m12 10v1h4v-1h-4z" style="fill:#c0c8cc;opacity:.2"/>
 <path d="m12 12v1h4v-1h-4z" style="fill:#c0c8cc;opacity:.2"/>
 <path d="m6 2c-2.216 0-4 1.784-4 4v1c0-2.216 1.784-4 4-4h20c2.216 0 4 1.784 4 4v-1c0-2.216-1.784-4-4-4h-20z" style="fill:#c0c8cc;opacity:.2"/>
</svg>
