<?xml version="1.0" encoding="UTF-8"?>
<svg width="32" height="32" version="1.1" xmlns="http://www.w3.org/2000/svg">
 <circle cx="16" cy="17" r="14" style="opacity:.2"/>
 <circle cx="16" cy="16" r="14" style="fill:#2a3235"/>
 <path d="m7 12v11h18v-11zm2 2h14v7h-14z" style="opacity:.2"/>
 <path d="M 16,2 A 14,14 0 0 0 2,16 14,14 0 0 0 2.0215,16.586 14,14 0 0 1 16,3 14,14 0 0 1 29.979,16.414 14,14 0 0 0 30,16 14,14 0 0 0 16,2 Z" style="fill:#c0c8cc;opacity:.1"/>
 <path d="m7 11v11h18v-11h-18zm2 2h14v7h-14v-7z" style="fill:#c0c8cc"/>
</svg>
