<?xml version="1.0" encoding="UTF-8"?>
<svg width="32" height="32" version="1.1" xmlns="http://www.w3.org/2000/svg">
 <path d="m3.5 31c-0.831 0-1.5-0.669-1.5-1.5v-1c0 0.831 0.669 1.5 1.5 1.5h25c0.831 0 1.5-0.669 1.5-1.5v1c0 0.831-0.669 1.5-1.5 1.5h-25z" style="opacity:.2"/>
 <rect x="2" y="2" width="28" height="28" rx="1.5" ry="1.5" style="fill:#2a3235"/>
 <path d="m3.5 2c-0.831 0-1.5 0.669-1.5 1.5v1c0-0.831 0.669-1.5 1.5-1.5h25c0.831 0 1.5 0.669 1.5 1.5v-1c0-0.831-0.669-1.5-1.5-1.5h-25z" style="fill:#c0c8cc;opacity:.1"/>
 <path d="m30 6-24 24h7l17-17z" style="fill:#40484c;stop-color:#253239"/>
 <path d="m11 30 19-19v7l-12 12z" style="fill:#bac9d1;stop-color:#253239"/>
 <path d="m16 30h7l7-7v-7z" style="fill:#bac9d1;stop-color:#253239"/>
 <path d="m21 30h5l4-4v-5z" style="fill:#40484c;stop-color:#253239"/>
 <path d="m13 5 2.857 5-2.857 5h2.286l1.714-3 1.714 3h2.286l-2.857-5 2.857-5h-2.286l-1.714 3.0005-1.714-3.0005zm-9 0h8v1.25l-5.1429 6.875h5.1429v1.875h-8v-1.25l5.1429-6.875h-5.1429z" style="opacity:.2"/>
 <path d="m13 4 2.857 5-2.857 5h2.286l1.714-3 1.714 3h2.286l-2.857-5 2.857-5h-2.286l-1.714 3.0005-1.714-3.0005zm-9 0h8v1.25l-5.1429 6.875h5.1429v1.875h-8v-1.25l5.1429-6.875h-5.1429z" style="fill:#c0c8cc"/>
</svg>
