<?xml version="1.0" encoding="UTF-8"?>
<svg xmlns="http://www.w3.org/2000/svg" width="32" height="32" version="1.1">
 <rect style="opacity:0.2" width="25" height="28" x="4" y="3" rx="2.8" ry="2.8"/>
 <rect style="fill:#40484c" width="25" height="28" x="4" y="2" rx="2.8" ry="2.8"/>
 <rect style="fill:#3b494f" width="21" height="7" x="6" y="4"/>
 <rect style="fill:#3b494f" width="21" height="7" x="6" y="17"/>
 <rect style="opacity:0.2" width="21" height="1" x="6" y="4"/>
 <rect style="opacity:0.2" width="21" height="1" x="6" y="17"/>
 <rect style="opacity:0.2;fill:#c0c8cc" width="21" height="1" x="6" y="15"/>
 <path style="fill:#c0c8cc;opacity:0.2" d="M 6.8008 2 C 5.2496 2 4 3.2496 4 4.8008 L 4 5.8008 C 4 4.2496 5.2496 3 6.8008 3 L 26.199 3 C 27.75 3 29 4.2496 29 5.8008 L 29 4.8008 C 29 3.2496 27.75 2 26.199 2 L 6.8008 2 z"/>
 <rect style="fill:#bac9d1" width="13" height="8" x="6" y="7"/>
 <rect style="fill:#c0c8cc" width="5" height="1" x="7" y="8"/>
 <rect style="fill:#40484c" width="8" height="5" x="19" y="10"/>
 <rect style="fill:#c0c8cc" width="3" height="1" x="7" y="10"/>
 <rect style="fill:#bac9d1" width="5" height="1" x="20" y="11"/>
 <rect style="fill:#bac9d1" width="3" height="1" x="20" y="13"/>
 <rect style="fill:#bac9d1" width="13" height="8" x="14" y="20"/>
 <rect style="fill:#c0c8cc" width="5" height="1" x="15" y="21"/>
 <rect style="fill:#40484c" width="8" height="5" x="6" y="23"/>
 <rect style="fill:#c0c8cc" width="3" height="1" x="15" y="23"/>
 <rect style="fill:#bac9d1" width="5" height="1" x="7" y="24"/>
 <rect style="fill:#bac9d1" width="3" height="1" x="7" y="26"/>
</svg>
