<?xml version="1.0" encoding="UTF-8"?>
<svg width="32" height="32" version="1.1" xmlns="http://www.w3.org/2000/svg">
 <rect x="2" y="3" width="28" height="28" ry="2" style="opacity:.2"/>
 <rect x="2" y="2" width="28" height="28" rx="2" ry="2" style="fill:#c0c8cc"/>
 <rect x="4" y="4" width="24" height="22" style="fill:#bac9d1"/>
 <rect x="4" y="15" width="24" height="11" style="fill:#40484c"/>
 <rect x="4" y="4" width="24" height="1" style="opacity:.1"/>
 <rect x="26" y="13" width="2" height="2" style="fill:#40484c"/>
 <rect x="6" y="13" width="2" height="2" style="fill:#40484c"/>
 <rect x="10" y="13" width="2" height="2" style="fill:#40484c"/>
 <rect x="14" y="13" width="2" height="2" style="fill:#40484c"/>
 <rect x="18" y="13" width="2" height="2" style="fill:#40484c"/>
 <rect x="22" y="13" width="2" height="2" style="fill:#40484c"/>
 <rect x="26" y="15" width="2" height="2" style="fill:#bac9d1"/>
 <rect x="22" y="15" width="2" height="2" style="fill:#bac9d1"/>
 <rect x="18" y="15" width="2" height="2" style="fill:#bac9d1"/>
 <rect x="14" y="15" width="2" height="2" style="fill:#bac9d1"/>
 <rect x="10" y="15" width="2" height="2" style="fill:#bac9d1"/>
 <rect x="6" y="15" width="2" height="2" style="fill:#bac9d1"/>
 <rect x="4" y="17" width="2" height="2" style="fill:#bac9d1"/>
 <rect x="12" y="17" width="2" height="2" style="fill:#bac9d1"/>
 <rect x="20" y="17" width="2" height="2" style="fill:#bac9d1"/>
 <rect x="24" y="19" width="2" height="2" style="fill:#bac9d1"/>
 <rect x="16" y="19" width="2" height="2" style="fill:#bac9d1"/>
 <rect x="8" y="19" width="2" height="2" style="fill:#bac9d1"/>
 <rect x="20" y="11" width="2" height="2" style="fill:#40484c"/>
 <rect x="12" y="11" width="2" height="2" style="fill:#40484c"/>
 <rect x="4" y="11" width="2" height="2" style="fill:#40484c"/>
 <rect x="8" y="9" width="2" height="2" style="fill:#40484c"/>
 <rect x="16" y="9" width="2" height="2" style="fill:#40484c"/>
 <rect x="24" y="9" width="2" height="2" style="fill:#40484c"/>
</svg>
