<?xml version="1.0" encoding="UTF-8"?>
<svg width="32" height="32" version="1.1" xmlns="http://www.w3.org/2000/svg">
 <rect x="2" y="3" width="28" height="28" rx="2" ry="2" style="opacity:.2"/>
 <rect x="2" y="2" width="28" height="28" rx="2" ry="2" style="fill:#3b494f"/>
 <path d="m11.9888 23.875h3.8318l4.3994-11.189 1.9348 0.62988 0.64453-2.1667-4.1724-1.2048-2.8064 7.1143-4.115-6.4844h-2.5806l5.7471 9.281-0.64453 1.8335h-2.2388z" style="opacity:.2"/>
 <path d="m11.9888 22.87492h3.8318l4.3994-11.189 1.9348 0.62988 0.64453-2.1667-4.1724-1.2048-2.8064 7.1143-4.115-6.4844h-2.5806l5.7471 9.281-0.64453 1.8335h-2.2388z" style="fill:#bac9d1"/>
 <path d="m4 2c-1.108 0-2 0.892-2 2v1c0-1.108 0.892-2 2-2h24c1.108 0 2 0.892 2 2v-1c0-1.108-0.892-2-2-2h-24z" style="fill:#c0c8cc;opacity:.2"/>
</svg>
