<?xml version="1.0" encoding="UTF-8"?>
<svg width="32" height="32" version="1.1" xmlns="http://www.w3.org/2000/svg">
 <path d="m6 14v15h10v-2h10v-13z" style="opacity:.2"/>
 <rect x="3" y="4" width="5" height="5" style="opacity:.2"/>
 <rect x="13" y="4" width="5" height="5" style="opacity:.2"/>
 <path d="m26 13h-3l-1-1h-3l-1 1h-5l-1-1h-3l-1 1h-2v15h5l1-1v-8h13l1-1z" style="fill:#bac9d1"/>
 <path d="m16 18h10v8h-10l-1-1v-6z" style="fill:#2a3235"/>
 <path d="m11 18h5v5l-1 1h-3l-1-1z" style="fill:#2a3235"/>
 <rect x="11" y="23" width="5" height="5" style="fill:#bac9d1"/>
 <rect x="3" y="3" width="5" height="5" style="fill:#40484c"/>
 <rect x="13" y="3" width="5" height="5" style="fill:#40484c"/>
 <rect x="16" y="18" width="10" height="1" style="opacity:.2"/>
 <rect x="6" y="13" width="20" height="1" style="fill:#c0c8cc;opacity:.2"/>
 <rect x="3" y="3" width="5" height="1" style="fill:#c0c8cc;opacity:.2"/>
 <rect x="13" y="3" width="5" height="1" style="fill:#c0c8cc;opacity:.2"/>
 <rect x="8" y="8" width="5" height="5" style="fill:#40484c"/>
 <rect x="18" y="8" width="5" height="5" style="fill:#40484c"/>
 <rect x="8" y="8" width="5" height="1" style="fill:#c0c8cc;opacity:.2"/>
 <rect x="18" y="8" width="5" height="1" style="fill:#c0c8cc;opacity:.2"/>
</svg>
