<?xml version="1.0" encoding="UTF-8"?>
<svg xmlns="http://www.w3.org/2000/svg" width="32" height="32" version="1.1">
 <rect style="opacity:0.2" width="28" height="28" x="2" y="3" rx="6" ry="6"/>
 <rect style="fill:#40484c" width="28" height="28" x="2" y="2" rx="6" ry="6"/>
 <path style="fill:#bac9d1" d="M 8 2 C 4.676 2 2 4.676 2 8 L 2 9 L 8 9 L 8 2 z M 8 9 L 8 16 L 15 16 L 15 9 L 8 9 z M 8 16 L 2 16 L 2 23 L 8 23 L 8 16 z M 8 23 L 8 30 L 15 30 L 15 23 L 8 23 z"/>
 <rect style="opacity:0.2" width="2" height="30" x="15" y="2" rx="1" ry="1"/>
 <rect style="fill:#2a3235" width="2" height="30" x="15" y="1" rx="1" ry="1"/>
 <circle style="opacity:0.2" cx="16" cy="17" r="6"/>
 <circle style="fill:#2a3235" cx="16" cy="16" r="6"/>
 <path style="fill:#bac9d1" d="M 17,13 V 19 L 21,16 Z M 15,13 V 19 L 11,16 Z"/>
 <path style="opacity:0.1;fill:#c0c8cc" d="M 8,2 C 4.676,2 2,4.676 2,8 V 9 C 2,5.676 4.676,3 8,3 H 24 C 27.324,3 30,5.676 30,9 V 8 C 30,4.676 27.324,2 24,2 H 17 C 17,2 17,1 16,1 14.967,1 15,2 15,2 Z"/>
</svg>
