<?xml version="1.0" encoding="UTF-8"?>
<svg xmlns="http://www.w3.org/2000/svg" width="32" height="32" version="1.1">
 <rect style="fill:#40484c" width="3" height="27" x="18" y="2"/>
 <rect style="fill:#bac9d1" width="3" height="27" x="15" y="2"/>
 <rect style="fill:#3b494f" width="3" height="27" x="24" y="2"/>
 <rect style="fill:#3b494f" width="3" height="27" x="21" y="2"/>
 <rect style="fill:#3b494f" width="3" height="27" x="6" y="2"/>
 <rect style="fill:#2a3235" width="3" height="27" x="3" y="2"/>
 <rect style="fill:#40484c" width="3" height="27" x="12" y="2"/>
 <rect style="fill:#3b494f" width="3" height="27" x="9" y="2"/>
 <rect style="fill:#40484c" width="3" height="27" x="27" y="2"/>
 <rect style="opacity:0.2" width="31" height="11" x="1" y="20" rx="2.114" ry="2.063"/>
 <rect style="fill:#40484c" width="31" height="11" x="1" y="19" rx="2.114" ry="2.063"/>
 <path style="opacity:0.2;fill:none;stroke:#253239" d="m 6,28.5 h 2.5 v -6 h 8 v 6 h 4 v -6 h 4 v 6 H 27"/>
 <path style="fill:none;stroke:#bac9d1" d="m 6,27.5 h 2.5 v -6 h 8 v 6 h 4 v -6 h 4 v 6 H 27"/>
 <path style="fill:#c0c8cc;opacity:0.2" d="M 3.1132812 19 C 1.9423268 19 1 19.919875 1 21.0625 L 1 22.0625 C 1 20.919875 1.9423268 20 3.1132812 20 L 29.886719 20 C 31.057673 20 32 20.919875 32 22.0625 L 32 21.0625 C 32 19.919875 31.057673 19 29.886719 19 L 3.1132812 19 z"/>
 <rect style="opacity:0.1;fill:#c0c8cc" width="27" height="1" x="3" y="2"/>
</svg>
