<?xml version="1.0" encoding="UTF-8"?>
<svg xmlns="http://www.w3.org/2000/svg" width="16" height="16" version="1.1">
 <defs>
  <style id="current-color-scheme" type="text/css">
   .ColorScheme-Text { color:#2a3235; } .ColorScheme-Highlight { color:#3b494f; } .ColorScheme-NeutralText { color:#40484c; } .ColorScheme-PositiveText { color:#40484c; } .ColorScheme-NegativeText { color:#3b494f; }
  </style>
 </defs>
 <path style="fill:currentColor" class="ColorScheme-Text" d="M 8,0 C 5.784,0 4,1.784 4,4 V 5 H 6 V 4 C 6,2.892 6.892,2 8,2 9.108,2 10,2.892 10,4 V 8 H 3 C 2.446,8 2,8.446 2,9 V 15 C 2,15.554 2.446,16 3,16 H 13 C 13.554,16 14,15.554 14,15 V 9 C 14,8.446 13.554,8 13,8 H 12 V 4 C 12,1.784 10.216,0 8,0 Z"/>
</svg>
