<?xml version="1.0" encoding="UTF-8"?>
<svg xmlns="http://www.w3.org/2000/svg" width="64" height="64" version="1">
 <circle style="opacity:0.2" cx="32" cy="33" r="28"/>
 <circle style="fill:#2a3235" cx="32" cy="32" r="28"/>
 <circle style="opacity:0.4" cx="32" cy="32" r="18"/>
 <circle style="opacity:0.2" cx="32" cy="33" r="14"/>
 <circle style="fill:#3b494f" cx="32" cy="32" r="14"/>
 <circle style="opacity:0.2" cx="32" cy="33" r="8"/>
 <circle style="fill:#40484c" cx="32" cy="32" r="8"/>
 <path style="opacity:0.1;fill:#c0c8cc" d="M 32 4 A 28 28 0 0 0 4 32 A 28 28 0 0 0 4.0352 32.5 A 28 28 0 0 1 32 5 A 28 28 0 0 1 59.982 32.252 A 28 28 0 0 0 60 32 A 28 28 0 0 0 32 4 z"/>
</svg>
