<?xml version="1.0" encoding="UTF-8"?>
<svg xmlns="http://www.w3.org/2000/svg" width="64" height="64" version="1.1">
 <rect style="opacity:0.2" width="50" height="56" x="7" y="5" rx="5.6" ry="5.6"/>
 <rect style="fill:#40484c" width="50" height="56" x="7" y="4" rx="5.6" ry="5.6"/>
 <rect style="fill:#3b494f" width="42" height="12" x="11" y="8"/>
 <rect style="fill:#3b494f" width="42" height="14" x="11" y="34"/>
 <rect style="opacity:0.2" width="42" height="1" x="11" y="8"/>
 <rect style="opacity:0.2;fill:#c0c8cc" width="42" height="1" x="11" y="30"/>
 <rect style="opacity:0.2" width="42" height="1" x="11" y="34"/>
 <path style="fill:#c0c8cc;opacity:0.2" d="M 12.6 4 C 9.4972 4 7 6.4972 7 9.5996 L 7 10.6 C 7 7.4972 9.4972 5 12.6 5 L 51.4 5 C 54.503 5 57 7.4972 57 10.6 L 57 9.5996 C 57 6.4972 54.503 4 51.4 4 L 12.6 4 z"/>
 <rect style="fill:#bac9d1" width="25" height="17" x="11" y="13"/>
 <rect style="fill:#c0c8cc" width="8" height="3" x="14" y="16"/>
 <rect style="fill:#40484c" width="17" height="11" x="36" y="19"/>
 <rect style="fill:#c0c8cc" width="4" height="2" x="14" y="21"/>
 <rect style="fill:#bac9d1" width="8" height="3" x="39" y="22"/>
 <rect style="fill:#bac9d1" width="5" height="2" x="39" y="27"/>
 <rect style="fill:#bac9d1" width="25" height="17" x="28" y="39"/>
 <rect style="fill:#c0c8cc" width="8" height="3" x="31" y="42"/>
 <rect style="fill:#40484c" width="17" height="11" x="11" y="45"/>
 <rect style="fill:#c0c8cc" width="4" height="2" x="31" y="47"/>
 <rect style="fill:#bac9d1" width="8" height="3" x="14" y="48"/>
 <rect style="fill:#bac9d1" width="5" height="2" x="14" y="53"/>
</svg>
