<?xml version="1.0" encoding="UTF-8"?>
<svg width="64" height="64" version="1.1" xmlns="http://www.w3.org/2000/svg">
 <rect x="4" y="5" width="56" height="56" rx="4" ry="4" style="opacity:.2"/>
 <rect x="4" y="4" width="56" height="56" rx="4" ry="4" style="fill:#c0c8cc"/>
 <rect x="8" y="8" width="48" height="44" style="fill:#bac9d1"/>
 <rect x="8" y="30" width="48" height="22" style="fill:#40484c"/>
 <rect x="8" y="8" width="48" height="1" style="opacity:.1"/>
 <rect x="54" y="28" width="2" height="2" style="fill:#40484c"/>
 <rect x="50" y="28" width="2" height="2" style="fill:#40484c"/>
 <rect x="46" y="28" width="2" height="2" style="fill:#40484c"/>
 <rect x="42" y="28" width="2" height="2" style="fill:#40484c"/>
 <rect x="38" y="28" width="2" height="2" style="fill:#40484c"/>
 <rect x="34" y="28" width="2" height="2" style="fill:#40484c"/>
 <rect x="30" y="28" width="2" height="2" style="fill:#40484c"/>
 <rect x="26" y="28" width="2" height="2" style="fill:#40484c"/>
 <rect x="22" y="28" width="2" height="2" style="fill:#40484c"/>
 <rect x="18" y="28" width="2" height="2" style="fill:#40484c"/>
 <rect x="14" y="28" width="2" height="2" style="fill:#40484c"/>
 <rect x="10" y="28" width="2" height="2" style="fill:#40484c"/>
 <rect x="8" y="26" width="2" height="2" style="fill:#40484c"/>
 <rect x="16" y="26" width="2" height="2" style="fill:#40484c"/>
 <rect x="24" y="26" width="2" height="2" style="fill:#40484c"/>
 <rect x="32" y="26" width="2" height="2" style="fill:#40484c"/>
 <rect x="40" y="26" width="2" height="2" style="fill:#40484c"/>
 <rect x="48" y="26" width="2" height="2" style="fill:#40484c"/>
 <rect x="54" y="24" width="2" height="2" style="fill:#40484c"/>
 <rect x="50" y="24" width="2" height="2" style="fill:#40484c"/>
 <rect x="46" y="24" width="2" height="2" style="fill:#40484c"/>
 <rect x="42" y="24" width="2" height="2" style="fill:#40484c"/>
 <rect x="38" y="24" width="2" height="2" style="fill:#40484c"/>
 <rect x="34" y="24" width="2" height="2" style="fill:#40484c"/>
 <rect x="30" y="24" width="2" height="2" style="fill:#40484c"/>
 <rect x="26" y="24" width="2" height="2" style="fill:#40484c"/>
 <rect x="22" y="24" width="2" height="2" style="fill:#40484c"/>
 <rect x="18" y="24" width="2" height="2" style="fill:#40484c"/>
 <rect x="14" y="24" width="2" height="2" style="fill:#40484c"/>
 <rect x="10" y="24" width="2" height="2" style="fill:#40484c"/>
 <rect x="12" y="26" width="2" height="2" style="fill:#40484c"/>
 <rect x="28" y="26" width="2" height="2" style="fill:#40484c"/>
 <rect x="44" y="26" width="2" height="2" style="fill:#40484c"/>
 <rect x="52" y="22" width="2" height="2" style="fill:#40484c"/>
 <rect x="44" y="22" width="2" height="2" style="fill:#40484c"/>
 <rect x="36" y="22" width="2" height="2" style="fill:#40484c"/>
 <rect x="28" y="22" width="2" height="2" style="fill:#40484c"/>
 <rect x="20" y="22" width="2" height="2" style="fill:#40484c"/>
 <rect x="12" y="22" width="2" height="2" style="fill:#40484c"/>
 <rect x="10" y="30" width="2" height="2" style="fill:#bac9d1"/>
 <rect x="14" y="30" width="2" height="2" style="fill:#bac9d1"/>
 <rect x="18" y="30" width="2" height="2" style="fill:#bac9d1"/>
 <rect x="22" y="30" width="2" height="2" style="fill:#bac9d1"/>
 <rect x="26" y="30" width="2" height="2" style="fill:#bac9d1"/>
 <rect x="30" y="30" width="2" height="2" style="fill:#bac9d1"/>
 <rect x="34" y="30" width="2" height="2" style="fill:#bac9d1"/>
 <rect x="38" y="30" width="2" height="2" style="fill:#bac9d1"/>
 <rect x="42" y="30" width="2" height="2" style="fill:#bac9d1"/>
 <rect x="46" y="30" width="2" height="2" style="fill:#bac9d1"/>
 <rect x="50" y="30" width="2" height="2" style="fill:#bac9d1"/>
 <rect x="54" y="30" width="2" height="2" style="fill:#bac9d1"/>
 <rect x="52" y="32" width="2" height="2" style="fill:#bac9d1"/>
 <rect x="48" y="32" width="2" height="2" style="fill:#bac9d1"/>
 <rect x="40" y="32" width="2" height="2" style="fill:#bac9d1"/>
 <rect x="36" y="32" width="2" height="2" style="fill:#bac9d1"/>
 <rect x="32" y="32" width="2" height="2" style="fill:#bac9d1"/>
 <rect x="24" y="32" width="2" height="2" style="fill:#bac9d1"/>
 <rect x="20" y="32" width="2" height="2" style="fill:#bac9d1"/>
 <rect x="16" y="32" width="2" height="2" style="fill:#bac9d1"/>
 <rect x="8" y="32" width="2" height="2" style="fill:#bac9d1"/>
 <rect x="10" y="34" width="2" height="2" style="fill:#bac9d1"/>
 <rect x="14" y="34" width="2" height="2" style="fill:#bac9d1"/>
 <rect x="18" y="34" width="2" height="2" style="fill:#bac9d1"/>
 <rect x="22" y="34" width="2" height="2" style="fill:#bac9d1"/>
 <rect x="26" y="34" width="2" height="2" style="fill:#bac9d1"/>
 <rect x="30" y="34" width="2" height="2" style="fill:#bac9d1"/>
 <rect x="34" y="34" width="2" height="2" style="fill:#bac9d1"/>
 <rect x="38" y="34" width="2" height="2" style="fill:#bac9d1"/>
 <rect x="42" y="34" width="2" height="2" style="fill:#bac9d1"/>
 <rect x="46" y="34" width="2" height="2" style="fill:#bac9d1"/>
 <rect x="50" y="34" width="2" height="2" style="fill:#bac9d1"/>
 <rect x="54" y="34" width="2" height="2" style="fill:#bac9d1"/>
 <rect x="52" y="36" width="2" height="2" style="fill:#bac9d1"/>
 <rect x="44" y="36" width="2" height="2" style="fill:#bac9d1"/>
 <rect x="36" y="36" width="2" height="2" style="fill:#bac9d1"/>
 <rect x="28" y="36" width="2" height="2" style="fill:#bac9d1"/>
 <rect x="20" y="36" width="2" height="2" style="fill:#bac9d1"/>
 <rect x="12" y="36" width="2" height="2" style="fill:#bac9d1"/>
 <rect x="8" y="38" width="2" height="2" style="fill:#bac9d1"/>
 <rect x="16" y="38" width="2" height="2" style="fill:#bac9d1"/>
 <rect x="24" y="38" width="2" height="2" style="fill:#bac9d1"/>
 <rect x="32" y="38" width="2" height="2" style="fill:#bac9d1"/>
 <rect x="40" y="38" width="2" height="2" style="fill:#bac9d1"/>
 <rect x="48" y="38" width="2" height="2" style="fill:#bac9d1"/>
 <rect x="48" y="20" width="2" height="2" style="fill:#40484c"/>
 <rect x="40" y="20" width="2" height="2" style="fill:#40484c"/>
 <rect x="32" y="20" width="2" height="2" style="fill:#40484c"/>
 <rect x="24" y="20" width="2" height="2" style="fill:#40484c"/>
 <rect x="16" y="20" width="2" height="2" style="fill:#40484c"/>
 <rect x="8" y="20" width="2" height="2" style="fill:#40484c"/>
 <rect x="12" y="18" width="2" height="2" style="fill:#40484c"/>
 <rect x="20" y="18" width="2" height="2" style="fill:#40484c"/>
 <rect x="28" y="18" width="2" height="2" style="fill:#40484c"/>
 <rect x="36" y="18" width="2" height="2" style="fill:#40484c"/>
 <rect x="44" y="18" width="2" height="2" style="fill:#40484c"/>
 <rect x="52" y="18" width="2" height="2" style="fill:#40484c"/>
 <rect x="52" y="40" width="2" height="2" style="fill:#bac9d1"/>
 <rect x="44" y="40" width="2" height="2" style="fill:#bac9d1"/>
 <rect x="36" y="40" width="2" height="2" style="fill:#bac9d1"/>
 <rect x="28" y="40" width="2" height="2" style="fill:#bac9d1"/>
 <rect x="20" y="40" width="2" height="2" style="fill:#bac9d1"/>
 <rect x="12" y="40" width="2" height="2" style="fill:#bac9d1"/>
</svg>
