<?xml version="1.0" encoding="UTF-8"?>
<svg xmlns="http://www.w3.org/2000/svg" width="64" height="64" version="1">
 <circle style="opacity:0.2" cx="32" cy="33" r="28"/>
 <circle style="fill:#2a3235" cx="32" cy="32" r="28"/>
 <circle style="opacity:0.2" cx="32" cy="33" r="22"/>
 <path style="fill:#bac9d1" d="m 32.00095,9.9999934 c -5.618748,0 -11.236564,2.1535526 -15.54194,6.4587426 -8.6107542,8.610378 -8.6107542,22.47215 0,31.082528 4.305376,4.305192 9.923192,6.458742 15.54194,6.458742 z"/>
 <path style="fill:#40484c" d="m 31.999994,9.9999934 c 5.618748,0 11.236564,2.1535526 15.54194,6.4587426 8.610754,8.610378 8.610754,22.47215 0,31.082528 -4.305376,4.305192 -9.923192,6.458742 -15.54194,6.458742 z"/>
 <path style="fill:#40484c" d="m 31.999994,32 15.542214,15.542214 c 8.61037,-8.610368 8.61037,-22.47406 0,-31.084429 z"/>
 <path style="fill:#3b494f" d="M 31.999994,32 16.457778,16.457785 c -8.6103706,8.610369 -8.6103706,22.474061 0,31.084429 z"/>
 <circle style="fill:#2a3235" cx="32" cy="32" r="12"/>
 <circle style="fill:#c0c8cc" cx="36" cy="26" r="4"/>
 <circle style="fill:#c0c8cc" cx="32" cy="32" r="3"/>
 <path style="opacity:0.1;fill:#c0c8cc" d="M 32 4 A 28 28 0 0 0 4 32 A 28 28 0 0 0 4.0332031 32.482422 A 28 28 0 0 1 32 5 A 28 28 0 0 1 59.982422 32.242188 A 28 28 0 0 0 60 32 A 28 28 0 0 0 32 4 z"/>
 <path style="opacity:0.2;fill:#c0c8cc" d="M 32 10 A 22 22 0 0 0 10 32 A 22 22 0 0 0 10.033203 32.482422 A 22 22 0 0 1 32 11 A 22 22 0 0 1 53.982422 32.238281 A 22 22 0 0 0 54 32 A 22 22 0 0 0 32 10 z"/>
</svg>
