<?xml version="1.0" encoding="UTF-8"?>
<svg xmlns="http://www.w3.org/2000/svg" width="64" height="64" version="1">
 <path stroke-linejoin="round" style="opacity:0.2;fill:none;stroke:#253239;stroke-width:8" d="M 8.0000204,54.999574 H 56.000558 L 32.000289,12.999614 Z"/>
 <path stroke-linejoin="round" style="fill:none;stroke:#bac9d1;stroke-width:8" d="M 8.0000204,53.99998 H 56.000558 L 32.000289,12.00002 Z"/>
 <path stroke-linejoin="round" style="fill:none;stroke:#2a3235;stroke-width:4" d="M 9,54 H 55 L 32,13 Z"/>
 <path style="fill:#bac9d1" d="M 9,54 H 55 L 32,13 Z"/>
 <path fill="#2a3235" d="m 30,30 h 4 v 20 h -4 z"/>
 <path stroke-linejoin="round" style="fill:none;stroke:#2a3235;stroke-width:3" d="m 32,46 c 0,-4 -3,-6 -7,-6"/>
 <path style="fill:#2a3235" d="m 32,24 -5,7 h 10 z"/>
 <path style="fill:#2a3235" d="m 20,40 7,4 v -8 z"/>
 <path style="fill:#c0c8cc;opacity:0.2" d="M 32 8 A 4.0005233 4.00042 0 0 0 28.527344 10.015625 L 4.5273438 52.015625 A 4.0005233 4.00042 0 0 0 4.0605469 54.3125 A 4.0005233 4.00042 0 0 1 4.5273438 53.015625 L 28.527344 11.015625 A 4.0005233 4.00042 0 0 1 32 9 A 4.0005233 4.00042 0 0 1 35.472656 11.015625 L 59.472656 53.015625 A 4.0005233 4.00042 0 0 1 59.958984 54.439453 A 4.0005233 4.00042 0 0 0 59.472656 52.015625 L 35.472656 10.015625 A 4.0005233 4.00042 0 0 0 32 8 z"/>
</svg>
