<?xml version="1.0" encoding="UTF-8"?>
<svg xmlns="http://www.w3.org/2000/svg" viewBox="0 0 16 16">
 <g color="#27323b" transform="translate(-421.71-531.79)">
  <path fill="#41474d" d="m425.71 535.79h2v2h-2z"/>
  <path fill="#41474d" d="m423.71 539.79h2v2h-2z"/>
  <path fill="#c1c7ce" d="m431.71 535.79h2v2h-2z"/>
  <path fill="#3d4852" d="m423.71 535.79h2v2h-2z"/>
  <path fill="#3d4852" d="m429.71 535.79h2v2h-2z"/>
  <path fill="#41474d" d="m427.71 535.79h2v2h-2z"/>
  <path fill="#c1c7ce" d="m427.71 537.79h2v2h-2z"/>
  <path fill="#3d4852" d="m425.71 537.79h2v2h-2z"/>
  <path fill="#3d4852" d="m423.71 537.79h2v2h-2z"/>
  <path fill="#41474d" d="m431.71 537.79h2v2h-2z"/>
  <path fill="#41474d" d="m429.71 537.79h2v2h-2z"/>
  <path fill="#c1c7ce" d="m431.71 539.79h2v2h-2z"/>
  <path fill="#3d4852" d="m429.71 539.79h2v2h-2z"/>
  <path fill="#3d4852" d="m427.71 539.79h2v2h-2z"/>
  <path fill="#41474d" d="m425.71 539.79h2v2h-2z"/>
  <path fill="#c1c7ce" d="m429.71 541.79h2v2h-2z"/>
  <path fill="#3d4852" d="m427.71 541.79h2v2h-2z"/>
  <path fill="#3d4852" d="m425.71 541.79h2v2h-2z"/>
  <path fill="#41474d" d="m431.71 541.79h2v2h-2z"/>
  <path fill="#c1c7ce" d="m425.71 543.79h2v2h-2z"/>
  <path fill="#3d4852" d="m423.71 543.79h2v2h-2z"/>
  <path fill="#3d4852" d="m433.71 537.79h2v2h-2z"/>
  <path fill="#3d4852" d="m433.71 539.79h2v2h-2z"/>
  <path fill="#41474d" d="m423.71 541.79h2v2h-2z"/>
  <path fill="#41474d" d="m433.71 535.79h2v2h-2z"/>
  <path fill="#c1c7ce" d="m423.71 533.79h2v2h-2z"/>
  <path fill="#3d4852" d="m427.71 533.79h2v2h-2z"/>
  <path fill="#3d4852" d="m425.71 533.79h2v2h-2z"/>
  <path fill="#41474d" d="m431.71 533.79h2v2h-2z"/>
  <path fill="#41474d" d="m433.71 533.79h2v2h-2z"/>
  <path fill="#c1c7ce" d="m429.71 533.79h2v2h-2z"/>
  <path fill="#3d4852" d="m433.71 541.79h2v2h-2z"/>
  <path fill="#c1c7ce" d="m431.71 543.79h2v2h-2z"/>
  <path fill="#3d4852" d="m429.71 543.79h2v2h-2z"/>
  <g fill="#41474d">
   <path d="m427.71 543.79h2v2h-2z"/>
   <path d="m433.71 543.79h2v2h-2z"/>
  </g>
 </g>
</svg>
