<?xml version="1.0" encoding="UTF-8"?>
<svg width="48" xmlns="http://www.w3.org/2000/svg" height="48">
 <defs>
  <linearGradient id="a" y1="543.8" y2="503.8" x2="0" gradientUnits="userSpaceOnUse" gradientTransform="matrix(1.125 0 0 .925-51.07 40.785)">
   <stop stop-color="#41474d"/>
   <stop offset="1" stop-color="#c1c7ce"/>
  </linearGradient>
  <linearGradient id="b" y1="541.8" y2="505.8" x2="0" gradientUnits="userSpaceOnUse" gradientTransform="matrix(1 0 0 .91667 0 45.15)">
   <stop stop-color="#bdc8d4"/>
   <stop offset="1" stop-color="#bdc8d4"/>
  </linearGradient>
  <linearGradient id="c" y1="542.8" y2="504.8" x2="0" gradientUnits="userSpaceOnUse" gradientTransform="matrix(1 0 0 .92105 0 42.852)">
   <stop stop-color="#3d4852"/>
   <stop offset="1" stop-color="#41474d"/>
  </linearGradient>
  <linearGradient id="d" y1="504.8" x1="391.57" y2="531.8" x2="418.57" gradientUnits="userSpaceOnUse">
   <stop stop-color="#2b3137"/>
   <stop offset="1" stop-color="#3d4852" stop-opacity="0"/>
  </linearGradient>
 </defs>
 <g transform="translate(-384.57-499.8)">
  <rect width="36" x="390.57" y="506.8" fill="url(#a)" rx="0" height="37"/>
  <rect width="34" x="391.57" opacity=".5" y="507.8" fill="url(#c)" height="35"/>
  <rect width="32" x="392.57" y="508.8" fill="url(#b)" height="33"/>
  <g stroke-width=".1">
   <path fill="#c1c7ce" d="m20 4l-2 2h-7v4h26v-4h-7l-2-2zm4 1c.554 0 1 .446 1 1 0 .554-.446 1-1 1-.554 0-1-.446-1-1 0-.554.446-1 1-1" transform="translate(384.57 499.8)"/>
   <rect width="26" x="395.57" y="508.8" fill="#41474d" height="1"/>
   <g fill="#bdc8d4">
    <rect width="18" x="395.57" y="512.8" height="1"/>
    <rect width="8" x="395.57" y="516.8" height="1"/>
    <rect width="18" x="395.57" y="520.8" height="1"/>
    <rect width="13" x="395.57" y="524.8" height="1"/>
    <rect width="10" x="395.57" y="536.8" height="1"/>
   </g>
  </g>
  <rect width="36" x="390.57" y="542.8" fill="#41474d" height="1"/>
  <path opacity=".2" fill="url(#d)" fill-rule="evenodd" d="m421.57 509.8l5 5v29h0v-3l-31-31z"/>
  <g fill="#27323b" fill-opacity=".314">
   <rect width="32" x="392.57" y="539.8" height="2"/>
   <rect width="32" x="392.57" y="540.8" height="1"/>
  </g>
 </g>
</svg>
