<?xml version="1.0" encoding="UTF-8"?>
<svg width="48" xmlns="http://www.w3.org/2000/svg" height="48">
 <defs>
  <linearGradient id="a" x1="543.8" x2="503.8" gradientUnits="userSpaceOnUse" gradientTransform="matrix(0 1-1.16667 0-452.67-499.8)">
   <stop stop-color="#3d4852"/>
   <stop offset="1" stop-color="#41474d"/>
  </linearGradient>
  <linearGradient id="b" y1="547.8" x1="384.57" y2="530.48" x2="394.57" gradientUnits="userSpaceOnUse">
   <stop stop-color="#bdc8d4" stop-opacity="0"/>
   <stop offset="1" stop-color="#bdc8d4" stop-opacity=".314"/>
  </linearGradient>
  <linearGradient id="c" x1="384.57" x2="414.57" gradientUnits="userSpaceOnUse">
   <stop stop-opacity=".275"/>
   <stop offset="1" stop-color="#bdc8d4" stop-opacity="0"/>
  </linearGradient>
  <linearGradient id="d" y1="547.8" x1="432.57" y2="527.8" x2="421.02" gradientUnits="userSpaceOnUse">
   <stop stop-opacity=".082"/>
   <stop offset="1" stop-opacity="0"/>
  </linearGradient>
  <linearGradient id="e" y1="44" y2="20" x2="0" gradientUnits="userSpaceOnUse">
   <stop stop-color="#bdc8d4"/>
   <stop offset="1" stop-color="#bdc8d4"/>
  </linearGradient>
  <linearGradient id="f" y1="511.8" x1="414.57" y2="519.8" x2="422.57" gradientUnits="userSpaceOnUse">
   <stop stop-color="#2b3137"/>
   <stop offset="1" stop-opacity="0"/>
  </linearGradient>
  <linearGradient id="g" y1="527.8" y2="511.8" x2="0" gradientUnits="userSpaceOnUse">
   <stop stop-color="#c1c7ce"/>
   <stop offset="1" stop-color="#bdc8d4"/>
  </linearGradient>
 </defs>
 <g transform="translate(-384.57-499.8)">
  <g transform="translate(384.57 499.8)">
   <path fill="#c1c7ce" fill-rule="evenodd" d="m24 8l-20 12 20 15 20-15z"/>
   <path fill="url(#a)" d="m10 4v40h28v-32l-8-8z"/>
   <path fill="url(#e)" d="m4 20v24h40v-24l-16 12h-8z"/>
  </g>
  <g fill-rule="evenodd">
   <path fill="url(#c)" d="m388.57 543.8l16-12h8l16 12z"/>
   <path fill="url(#d)" d="m428.57 543.8l-16-12 16-12z"/>
   <path fill="url(#b)" d="m388.57 543.8l16-12-16-12z"/>
  </g>
  <rect width="40" x="388.57" y="542.8" fill="#c1c7ce" height="1"/>
  <g fill-rule="evenodd">
   <path fill="#2b3137" d="m422.57 511.8h-8v-8z"/>
   <path opacity=".2" fill="url(#f)" d="m414.57 511.8h8v8z"/>
  </g>
  <path color-interpolation-filters="linearRGB" image-rendering="auto" color-rendering="auto" d="m416.57 513.21c1.175 1.175 1.175 3.067 0 4.243l-9.168 9.168c-1.567 1.567-4.09 1.567-5.657 0-1.567-1.567-1.567-4.09 0-5.657l9.168-9.168.707.707-9.168 9.168c-1.175 1.175-1.175 3.067 0 4.243 1.175 1.175 3.067 1.175 4.243 0l9.168-9.168c.783-.783.783-2.045 0-2.828-.783-.783-2.045-.783-2.828 0l-9.168 9.168c-.392.392-.392 1.023 0 1.414.392.392 1.022.392 1.414 0l8.461-8.461.707.707-8.461 8.461c-.783.783-2.045.783-2.828 0-.783-.783-.783-2.045 0-2.828l9.168-9.168c1.175-1.175 3.067-1.175 4.243 0" color-interpolation="sRGB" text-rendering="auto" fill="url(#g)" shape-rendering="auto"/>
 </g>
</svg>
