<?xml version="1.0" encoding="UTF-8"?>
<svg width="48" xmlns="http://www.w3.org/2000/svg" height="48">
 <defs>
  <linearGradient id="a" y1="543.8" y2="503.8" x1="434.57" gradientUnits="userSpaceOnUse" x2="384.57">
   <stop stop-color="#2b3137"/>
   <stop offset="1" stop-color="#3d4852"/>
  </linearGradient>
  <linearGradient id="b" y1="44" y2="4" gradientUnits="userSpaceOnUse" x2="0" gradientTransform="translate(384.57 499.8)">
   <stop stop-color="#41474d"/>
   <stop offset="1" stop-color="#c1c7ce"/>
  </linearGradient>
  <linearGradient id="c" y1="17" x1="17" y2="40" x2="40" gradientUnits="userSpaceOnUse">
   <stop stop-color="#2b3137"/>
   <stop offset="1" stop-color="#3d4852" stop-opacity="0"/>
  </linearGradient>
 </defs>
 <g transform="translate(-384.57-499.8)">
  <g stroke-opacity=".55" stroke-width="2.8">
   <rect width="48" x="384.57" y="503.8" fill="url(#a)" height="40"/>
   <path fill="url(#b)" d="m384.57 503.8v40h48v-40h-46zm2 2h44v36h-44z"/>
  </g>
  <path opacity=".2" fill="url(#c)" fill-rule="evenodd" d="m6 25v16h-1v3h43v-16l-3-3h-3.805c-9.208 2.61-9.571 14.545-14.684 14.508-5.11-.038-7.87-11.905-17.594-14.508z" transform="translate(384.57 499.8)"/>
  <g fill="#41474d">
   <rect width="48" x="384.57" y="542.8" stroke-opacity=".55" height="1" stroke-width="2.8"/>
   <path color-rendering="auto" shape-rendering="auto" color-interpolation-filters="linearRGB" image-rendering="auto" text-rendering="auto" fill-opacity=".498" color-interpolation="sRGB" color="#27323b" d="m2 6v36h44v-36h-43zm1 1h42v34h-42z" transform="translate(384.57 499.8)"/>
  </g>
  <g fill="none" stroke-width=".984">
   <path stroke="#3d4852" d="m389.57 524.29c13.01 0 15.772 14.973 21.511 15.02 5.739.042 5.484-15.02 18.489-15.02"/>
   <path stroke="#41474d" d="m389.57 523.31c13.01 0 15.772-10.274 21.511-10.316 5.739-.042 5.484 10.316 18.489 10.316"/>
  </g>
  <rect width="1" x="389.57" y="506.8" fill="#bdc8d4" color-rendering="auto" height="34" shape-rendering="auto" color-interpolation-filters="linearRGB" image-rendering="auto" text-rendering="auto" color-interpolation="sRGB" color="#27323b"/>
  <path fill="none" stroke="#bdc8d4" stroke-width=".984" d="m389.57 523.31c13.01 0 15.772-14.973 21.511-15.02 5.739-.042 5.484 15.02 18.489 15.02"/>
  <g color-rendering="auto" shape-rendering="auto" color-interpolation-filters="linearRGB" image-rendering="auto" text-rendering="auto" color-interpolation="sRGB" color="#27323b">
   <rect width="4" x="419.57" y="539.8" fill="#3d4852" height="1"/>
   <rect width="4" x="424.57" y="539.8" fill="#bdc8d4" height="1"/>
   <g fill="#bdc8d4">
    <rect width="39" x="390.57" y="523.8" height="1"/>
    <rect width="1" x="396.57" y="522.8" height="3"/>
    <rect width="1" x="410.57" y="522.8" height="3"/>
    <rect width="1" x="424.57" y="522.8" height="3"/>
   </g>
  </g>
 </g>
</svg>
