<?xml version="1.0" encoding="UTF-8"?>
<svg xmlns="http://www.w3.org/2000/svg" width="48" height="48" version="1">
 <rect style="opacity:0.2" width="32" height="36" x="8" y="9" rx="2" ry="2"/>
 <rect style="fill:#2a3235" width="32" height="36" x="8" y="8" rx="2" ry="2"/>
 <rect style="fill:#40484c" width="20" height="4" x="14" y="4"/>
 <path style="opacity:0.2" d="m 11,13 v 8 h 26 v -8 z m 0,10 v 8 h 26 v -8 z m 0,10 v 8 h 26 v -8 z"/>
 <path style="fill:#c0c8cc" d="m 11,12 v 8 h 26 v -8 z m 0,10 v 8 h 26 v -8 z m 0,10 v 8 h 26 v -8 z"/>
 <path style="opacity:0.2;fill:#c0c8cc" d="m14 4v1h20v-1h-20z"/>
 <path style="fill:#c0c8cc;opacity:0.2" d="M 11 12 L 11 13 L 37 13 L 37 12 L 11 12 z M 11 22 L 11 23 L 37 23 L 37 22 L 11 22 z M 11 32 L 11 33 L 37 33 L 37 32 L 11 32 z"/>
</svg>
