<?xml version="1.0" encoding="UTF-8"?>
<svg width="22" height="22" version="1.1" xmlns="http://www.w3.org/2000/svg">
 <circle cx="15" cy="9" r="6" style="opacity:.2"/>
 <circle cx="15" cy="8.5" r="6" style="fill:#3b494f"/>
 <path d="m 15,2.5 a 6,6 0 0 0 -6,6 6,6 0 0 0 0.00977,0.2851562 A 6,6 0 0 1 15,3 6,6 0 0 1 20.990234,8.7148438 6,6 0 0 0 21,8.5 6,6 0 0 0 15,2.5 Z" style="fill:#c0c8cc;opacity:.2"/>
 <circle cx="7" cy="11" r="6" style="opacity:.2"/>
 <circle cx="7" cy="10.5" r="6" style="fill:#40484c"/>
 <path d="M 7,4.5000001 A 6,6 0 0 0 1,10.5 6,6 0 0 0 1.00977,10.785156 6,6 0 0 1 7,5 a 6,6 0 0 1 5.990234,5.714844 6,6 0 0 0 0.0098,-0.214844 6,6 0 0 0 -6,-6 z" style="fill:#c0c8cc;opacity:.2"/>
 <circle cx="13" cy="14" r="6" style="opacity:.2"/>
 <circle cx="13" cy="13.5" r="6" style="fill:#3b494f"/>
 <path d="m 13,7.5 a 6,6 0 0 0 -6,6 6,6 0 0 0 0.00977,0.285156 A 6,6 0 0 1 13,8 6,6 0 0 1 18.990234,13.714844 6,6 0 0 0 19,13.5 6,6 0 0 0 13,7.5 Z" style="fill:#c0c8cc;opacity:.2"/>
</svg>
