<?xml version="1.0" encoding="UTF-8"?>
<svg xmlns="http://www.w3.org/2000/svg" width="22" height="22" version="1.1">
 <g transform="translate(-1,-1)">
  <circle style="opacity:0.2" cx="12" cy="12.5" r="10"/>
  <circle style="fill:#2a3235" cx="12" cy="12" r="10"/>
  <ellipse style="opacity:0.2" cx="6.5" cy="14.5" rx="3.5" ry="4"/>
  <ellipse style="fill:#c0c8cc" cx="6.5" cy="14" rx="3.5" ry="4"/>
  <ellipse style="fill:#40484c" cx="6.5" cy="14" rx="1.5" ry="2"/>
  <ellipse style="opacity:0.2" cx="12" cy="14" rx="4" ry="4.5"/>
  <ellipse style="fill:#c0c8cc" cx="12" cy="13.5" rx="4" ry="4.5"/>
  <ellipse style="fill:#40484c" cx="12.5" cy="13" rx="1.5" ry="2"/>
  <path style="fill:#2a3235" d="m 13.000003,13 a 0.5,1 0 0 1 -0.5,1 0.5,1 0 0 1 -0.5,-1 0.5,1 0 0 1 0.5,-1 0.5,1 0 0 1 0.5,1 z"/>
  <path style="fill:#2a3235" d="m 7,14.000002 a 0.5,1 0 0 1 -0.5,1 0.5,1 0 0 1 -0.5,-1 0.5,1 0 0 1 0.5,-1 0.5,1 0 0 1 0.5,1 z"/>
  <path style="opacity:0.2;fill:#c0c8cc" d="M 12,2 A 10,10 0 0 0 2,12 10,10 0 0 0 2.0098,12.293 10,10 0 0 1 12,2.5 10,10 0 0 1 21.99,12.207 10,10 0 0 0 22,12 10,10 0 0 0 12,2 Z"/>
 </g>
</svg>
