<?xml version="1.0" encoding="UTF-8"?>
<svg width="22" height="22" version="1.1" xmlns="http://www.w3.org/2000/svg">
 <path d="m17 21.5h-12c-2 0-4-2-4-4v-12c0-2 2-4 4-4h12c2 0 4 2 4 4v12c0 2-2 4-4 4z" style="fill:#253239;opacity:.2"/>
 <path d="m17 21h-12c-2 0-4-2-4-4v-12c0-2 2-4 4-4h12c2 0 4 2 4 4v12c0 2-2 4-4 4z" style="fill:#40484c"/>
 <path d="m4.9999999 1c-1.999998 0-4 2.000002-4 4v0.5c0-1.999998 2.000002-4 4-4h12c1.999998 0 4 2.000002 4 4v-0.5c0-1.999998-2.000002-4-4-4z" style="fill:#c0c8cc;opacity:.2"/>
 <path d="m11 10.5v9h5v-7z" style="opacity:.2"/>
 <path d="m11 4.5v5l5 2v-7z" style="opacity:.2"/>
 <path d="m5 19.5v-5l4.9999999-2v7z" style="opacity:.2"/>
 <path d="m5.0001605 13.5-1.606e-4 -9h5v7z" style="opacity:.2"/>
 <path d="m11 10v9h5v-7z" style="fill:#c0c8cc"/>
 <path d="m11 4v5l5 2v-7z" style="fill:#c0c8cc"/>
 <path d="m5 19v-5l4.9999999-2v7z" style="fill:#c0c8cc"/>
 <path d="m5.0001605 13-1.606e-4 -9h5v7z" style="fill:#c0c8cc"/>
</svg>
