<?xml version="1.0" encoding="UTF-8"?>
<svg xmlns="http://www.w3.org/2000/svg" width="22" height="22" version="1">
 <rect fill="#2a3235" width="20" height="20" x="1" y="1" rx="1" ry="1"/>
 <path fill="#c0c8cc" opacity=".1" d="m2 1c-0.554 0-1 0.446-1 1v0.5c0-0.554 0.446-1 1-1h18c0.554 0 1 0.446 1 1v-0.5c0-0.554-0.446-1-1-1h-18z"/>
 <path opacity=".2" d="m2 21.5c-0.554 0-1-0.446-1-1v-0.5c0 0.554 0.446 1 1 1h18c0.554 0 1-0.446 1-1v0.5c0 0.554-0.446 1-1 1h-18z"/>
 <g opacity=".2" transform="matrix(.5 0 0 .5 -4 -4)">
  <path d="m16 15 8 4.5 8 4.5-8 4.5-8 4.5v-18z"/>
  <path d="m34 24 6 3.5 6 3.5-6 3.5-6 3.5v-14z"/>
  <path d="m20 32 7 4 7 4-7 4-7 4v-16z"/>
 </g>
 <g fill="#bac9d1" transform="matrix(.5 0 0 .5 -4 -4.5)">
  <path d="m16 15 8 4.5 8 4.5-8 4.5-8 4.5v-18z"/>
  <path d="m34 24 6 3.5 6 3.5-6 3.5-6 3.5v-14z"/>
  <path d="m20 32 7 4 7 4-7 4-7 4v-16z"/>
 </g>
</svg>
