<?xml version="1.0" encoding="UTF-8"?>
<svg xmlns="http://www.w3.org/2000/svg" width="22" height="22" version="1.1">
 <path style="opacity:0.2" d="m11 1.5v5h-5l-5 5h5v5l5 5v-5h5l4.5-4.5 0.5-0.5h-5v-5z"/>
 <path style="fill:#bac9d1" d="m6 6-5 5h10v-5"/>
 <path style="fill:#3b494f" d="m16 6-5-5v10h5"/>
 <path style="fill:#40484c" d="m6 16 5 5v-10h-5"/>
 <path style="fill:#3b494f" d="m16 16 5-5h-10v5"/>
 <path style="opacity:0.2;fill:#c0c8cc" d="m11 11v0.5h9.5l0.5-0.5z"/>
 <path style="fill:#3b494f" d="m16 6-5 5h5z"/>
 <path style="fill:#3b494f" d="m6 11v5l5-5z"/>
 <path style="fill:#3b494f" d="m11 11v5h5z"/>
 <path style="fill:#40484c" d="m6 6 5 5v-5z"/>
 <path style="opacity:0.2;fill:#c0c8cc" d="m11 1v0.5l5 5v-0.5zm-5 5-5 5h0.5l4.5-4.5h5v-0.5z"/>
 <path style="opacity:0.2" d="m11 8.5-1 2-2 1 2 1 1 2 1-2 2-1-2-1z"/>
 <path style="fill:#c0c8cc" d="m11 8-1 2-2 1 2 1 1 2 1-2 2-1-2-1z"/>
 <path style="fill:#c0c8cc" d="m8 11 2 1 1 2-0-3z"/>
 <path style="fill:#c0c8cc" d="m14 11-2 1-1 2-0-3z"/>
</svg>
