<?xml version="1.0" encoding="UTF-8"?>
<svg xmlns="http://www.w3.org/2000/svg" width="22" height="22" version="1">
 <rect fill="#40484c" width="20" height="20" x="1" y="1" rx="1" ry="1"/>
 <path fill="#c0c8cc" opacity=".2" d="m2 1c-0.554 0-1 0.446-1 1v0.5c0-0.554 0.446-1 1-1h18c0.554 0 1 0.446 1 1v-0.5c0-0.554-0.446-1-1-1h-18z"/>
 <path opacity=".2" d="m2 21.5c-0.554 0-1-0.446-1-1v-0.5c0 0.554 0.446 1 1 1h18c0.554 0 1-0.446 1-1v0.5c0 0.554-0.446 1-1 1h-18z"/>
 <path opacity=".2" d="m14 4.5-1.5 6-0.5-3-4 1-1 3-1-5-3 1 2 9.5 3.5 0.5 1-2.5 0.75 2.75 4.75 0.75 4-13z"/>
 <path fill="#c0c8cc" d="m14 4-1.5 6-0.5-3-4 1-1 3-1-5-3 1 2 9.5 3.5 0.5 1-2.5 0.75 2.75 4.75 0.75 4-13z"/>
</svg>
