<?xml version="1.0" encoding="UTF-8"?>
<svg xmlns="http://www.w3.org/2000/svg" width="22" height="22" version="1.1">
 <rect style="opacity:0.2" width="22" height="8" x="0" y="13.5" rx="1.5" ry="1.5"/>
 <rect style="fill:#40484c" width="2" height="19" x="12" y="1"/>
 <rect style="fill:#bac9d1" width="2" height="19" x="10" y="1"/>
 <rect style="fill:#3b494f" width="2" height="19" x="16" y="1"/>
 <rect style="fill:#3b494f" width="2" height="19" x="14" y="1"/>
 <rect style="fill:#3b494f" width="2" height="19" x="4" y="1"/>
 <rect style="fill:#2a3235" width="2" height="19" x="2" y="1"/>
 <rect style="fill:#40484c" width="2" height="19" x="8" y="1"/>
 <rect style="fill:#3b494f" width="2" height="19" x="6" y="1"/>
 <rect style="fill:#40484c" width="2" height="19" x="18" y="1"/>
 <rect style="fill:#40484c" width="22" height="8" x="0" y="13" rx="1.5" ry="1.5"/>
 <path style="opacity:0.2;fill:none;stroke:#253239" d="m 3,20 h 1.5 v -5 h 7 v 5 h 3 v -5 h 3.000102 v 5 H 19"/>
 <path style="fill:none;stroke:#bac9d1" d="m 3,19.5 h 1.5 v -5 h 7 v 5 h 3 v -5 h 3.000102 v 5 H 19"/>
 <path style="opacity:0.2;fill:#c0c8cc" d="M 1.5,13 C 0.669,13 0,13.669 0,14.5 V 15 c 0,-0.831 0.669,-1.5 1.5,-1.5 h 19 c 0.831,0 1.5,0.669 1.5,1.5 V 14.5 C 22,13.669 21.331,13 20.5,13 Z"/>
 <rect style="opacity:0.1;fill:#c0c8cc" width="18" height=".5" x="2" y="1"/>
</svg>
