<?xml version="1.0" encoding="UTF-8"?>
<svg width="22" height="22" version="1.1" xmlns="http://www.w3.org/2000/svg">
 <defs>
  <style id="current-color-scheme" type="text/css">.ColorScheme-Text { color:#2a3235; } .ColorScheme-Highlight { color:#3b494f; } .ColorScheme-NeutralText { color:#40484c; } .ColorScheme-PositiveText { color:#40484c; } .ColorScheme-NegativeText { color:#3b494f; }</style>
 </defs>
 <path class="ColorScheme-Text" d="m7 3v3h3v-3zm3 3v3h3v-3zm3 0h3v-3h-3zm3 0v3h3v-3zm0 3h-3v3h3zm0 3v3h3v-3zm0 3h-3v3h3zm-3 0v-3h-3v3zm-3 0h-3v3h3zm-3 0v-3h-3v3zm0-3h3v-3h-3zm0-3v-3h-3v3z" style="fill:currentColor"/>
</svg>
