<?xml version="1.0" encoding="UTF-8"?>
<svg xmlns="http://www.w3.org/2000/svg" width="24" height="24" version="1">
 <rect style="fill:#c0c8cc" width="20" height="20" x="2" y="2" rx="1" ry="1"/>
 <path style="opacity:0.1" d="m 4,4.5 v 4 h 4 v -4 z m 0,6 v 4 h 4 v -4 z m 6,0 v 4 h 4 v -4 z m 6,0 v 4 h 4 v -4 z m -12,6 v 4 h 4 v -4 z m 6,0 v 4 h 4 v -4 z m 6,0 v 4 h 4 v -4 z"/>
 <path style="opacity:0.2;fill:#c0c8cc" d="M 2,3.5 V 3 C 2,2.446 2.446,2 3,2 h 18 c 0.554,0 1,0.446 1,1 v 0.5 c 0,-0.554 -0.446,-1 -1,-1 H 3 c -0.554,0 -1,0.446 -1,1 z"/>
 <path style="opacity:0.2" d="m 2,21 v 0.5 c 0,0.554 0.446,1 1,1 h 18 c 0.554,0 1,-0.446 1,-1 V 21 c 0,0.554 -0.446,1 -1,1 H 3 C 2.446,22 2,21.554 2,21 Z"/>
 <rect style="fill:#40484c" width="4" height="4" x="10" y="10"/>
 <rect style="fill:#40484c" width="4" height="4" x="4" y="10"/>
 <rect style="fill:#40484c" width="4" height="4" x="16" y="10"/>
 <rect style="fill:#40484c" width="4" height="4" x="10" y="16"/>
 <rect style="fill:#bac9d1" width="4" height="4" x="4" y="16"/>
 <rect style="fill:#3b494f" width="4" height="4" x="16" y="16"/>
 <rect style="fill:#40484c" width="4" height="4" x="4" y="4"/>
</svg>
