<?xml version="1.0" encoding="UTF-8"?>
<svg width="24" height="24" version="1.1" xmlns="http://www.w3.org/2000/svg">
 <rect x="2" y="2.5" width="20" height="20" rx="1.5" ry="1.5" style="opacity:.2"/>
 <rect x="2" y="2" width="20" height="20" rx="1.9999999" ry="1.9999999" style="fill:#c0c8cc"/>
 <rect x="3" y="3" width="18" height="16" style="fill:#bac9d1"/>
 <rect x="3" y="11" width="18" height="8" style="fill:#40484c"/>
 <rect x="3" y="3" width="18" height=".5" style="opacity:.1"/>
 <rect x="5" y="9" width="2" height="2" style="fill:#40484c"/>
 <rect x="9" y="9" width="2" height="2" style="fill:#40484c"/>
 <rect x="13" y="9" width="2" height="2" style="fill:#40484c"/>
 <rect x="17" y="9" width="2" height="2" style="fill:#40484c"/>
 <rect x="17" y="11" width="2" height="2" style="fill:#bac9d1"/>
 <rect x="13" y="11" width="2" height="2" style="fill:#bac9d1"/>
 <rect x="9" y="11" width="2" height="2" style="fill:#bac9d1"/>
 <rect x="5" y="11" width="2" height="2" style="fill:#bac9d1"/>
 <rect x="3" y="13" width="2" height="2" style="fill:#bac9d1"/>
 <rect x="11" y="13" width="2" height="2" style="fill:#bac9d1"/>
 <rect x="7" y="15" width="2" height="2" style="fill:#bac9d1"/>
 <rect x="15" y="15" width="2" height="2" style="fill:#bac9d1"/>
 <rect x="11" y="7" width="2" height="2" style="fill:#40484c"/>
 <rect x="19" y="7" width="2" height="2" style="fill:#40484c"/>
 <rect x="15" y="5" width="2" height="2" style="fill:#40484c"/>
 <rect x="7" y="5" width="2" height="2" style="fill:#40484c"/>
 <rect x="3" y="7" width="2" height="2" style="fill:#40484c"/>
 <rect x="19" y="13" width="2" height="2" style="fill:#bac9d1"/>
</svg>
