<?xml version="1.0" encoding="UTF-8"?>
<svg width="24" height="24" version="1.1" xmlns="http://www.w3.org/2000/svg">
 <path d="m4 10.5v12h8v-1h8v-11z" style="opacity:.2"/>
 <rect x="2" y="2.5" width="4" height="4" style="opacity:.2"/>
 <rect x="10" y="2.5" width="4" height="4" style="opacity:.2"/>
 <path d="m20 10h-2l-1-1h-2l-1 1h-4l-1-1h-2l-1 1h-2v12h4l1-1v-6h10l1-1z" style="fill:#bac9d1"/>
 <path d="m12 14h8v7h-8l-0.5-0.5v-6z" style="fill:#2a3235"/>
 <path d="m8 14h4v4l-0.5 0.5h-3l-0.5-0.5z" style="fill:#2a3235"/>
 <rect x="8" y="18" width="4" height="4" style="fill:#bac9d1"/>
 <rect x="2" y="2" width="4" height="4" style="fill:#40484c"/>
 <rect x="10" y="2" width="4" height="4" style="fill:#40484c"/>
 <rect x="12" y="14" width="8" height=".5" style="opacity:.2"/>
 <rect x="4" y="10" width="16" height=".5" style="fill:#c0c8cc;opacity:.2"/>
 <rect x="2" y="2" width="4" height=".5" style="fill:#c0c8cc;opacity:.2"/>
 <rect x="10" y="2" width="4" height=".5" style="fill:#c0c8cc;opacity:.2"/>
 <rect x="6" y="6" width="4" height="4" style="fill:#40484c"/>
 <rect x="14" y="6" width="4" height="4" style="fill:#40484c"/>
 <rect x="6" y="6" width="4" height=".5" style="fill:#c0c8cc;opacity:.2"/>
 <rect x="14" y="6" width="4" height=".5" style="fill:#c0c8cc;opacity:.2"/>
</svg>
