<?xml version="1.0" encoding="UTF-8"?>
<svg width="24" height="24" version="1.1" xmlns="http://www.w3.org/2000/svg">
 <g transform="translate(1,1)">
  <path d="m9 1.5v4h4v-4zm4 4v4h4v-4zm4 4v4h4v-4zm0 4h-4v4h4zm-4 4h-4v4h4zm-4 0v-4h-4v4zm-4-4v-4h-4v4zm0-4h4v-4h-4z" style="opacity:.2"/>
  <rect x="1" y="9" width="4" height="4" style="fill:#40484c"/>
  <rect x="9" y="17" width="4" height="4" style="fill:#40484c"/>
  <rect x="1" y="9" width="4" height="4" style="fill:#c0c8cc"/>
  <rect x="13" y="13" width="4" height="4" style="fill:#3b494f"/>
  <rect transform="scale(-1,1)" x="-21" y="9" width="4" height="4" style="fill:#40484c"/>
  <rect x="5" y="13" width="4" height="4" style="fill:#40484c"/>
  <rect x="5" y="5" width="4" height="4" style="fill:#bac9d1"/>
  <rect x="13" y="5" width="4" height="4" style="fill:#c0c8cc"/>
  <rect x="9" y="1" width="4" height="4" style="fill:#2a3235"/>
  <path d="m9 5.5v4h-4v4h4v4h4v-4h4v-4h-4v-4z" style="opacity:.2"/>
  <path d="m9 5v4h-4v4h4v4h4v-4h4v-4h-4v-4z" style="fill:#c0c8cc"/>
  <path d="m9 1v0.5h4v-0.5zm-4 4v0.5h4v-0.5zm8 0v0.5h4v-0.5zm-12 4v0.5h4v-0.5zm16 0v0.5h4v-0.5z" style="fill:#c0c8cc;opacity:.2"/>
 </g>
</svg>
