<?xml version="1.0" encoding="UTF-8"?>
<svg xmlns="http://www.w3.org/2000/svg" width="24" height="24" version="1">
 <path stroke-linejoin="round" style="opacity:0.2;fill:none;stroke:#253239;stroke-width:4" d="M 4,20.499775 H 20 L 12,5.4997751 Z"/>
 <path stroke-linejoin="round" style="fill:none;stroke:#bac9d1;stroke-width:4" d="M 4,20 H 20 L 12,5 Z"/>
 <path stroke-linejoin="round" style="fill:none;stroke:#2a3235;stroke-width:2" d="M 4,20 H 20 L 12,5 Z"/>
 <path style="fill:#bac9d1" d="M 4,20 H 20 L 12,5 Z"/>
 <path fill="#2a3235" d="m 11,11 h 2 v 8 h -2 z"/>
 <path stroke-linejoin="round" style="fill:none;stroke:#2a3235;stroke-width:1" d="M 12,18 C 12,16.619128 10.380872,16 9,16"/>
 <path style="fill:#2a3235" d="m 12,9 -2,3 h 4 z"/>
 <path style="fill:#2a3235" d="m 8,16 2,2 v -4 z"/>
 <path style="fill:#c0c8cc;opacity:0.2" d="M 12 3 A 2.0000183 2.0002 0 0 0 10.234375 4.0585938 L 2.234375 19.058594 A 2.0000183 2.0002 0 0 0 2.03125 20.28125 A 2.0000183 2.0002 0 0 1 2.234375 19.558594 L 10.234375 4.5585938 A 2.0000183 2.0002 0 0 1 12 3.5 A 2.0000183 2.0002 0 0 1 13.765625 4.5585938 L 21.765625 19.558594 A 2.0000183 2.0002 0 0 1 21.980469 20.259766 A 2.0000183 2.0002 0 0 0 21.765625 19.058594 L 13.765625 4.0585938 A 2.0000183 2.0002 0 0 0 12 3 z"/>
</svg>
