<?xml version="1.0" encoding="UTF-8"?>
<svg width="24" height="24" version="1.1" xmlns="http://www.w3.org/2000/svg">
 <rect x="2.0150564" y="2.25" width="20" height="20" rx="1" ry="1" style="fill:#40484c"/>
 <path d="m22.015056 21.25v-18c0-0.554-0.446-1-1-1h-9v20h9c0.554 0 1-0.446 1-1z" style="fill:#3b494f"/>
 <path d="m3.0150565 2.25c-0.554 0-1 0.446-1 1v0.5c0-0.554 0.446-1 1-1h18c0.554 0 1 0.446 1 1v-0.5c0-0.554-0.446-1-1-1z" fill="#c0c8cc" opacity=".2"/>
 <path d="m3.0150565 22.75c-0.554 0-1-0.446-1-1v-0.5c0 0.554 0.446 1 1 1h18c0.554 0 1-0.446 1-1v0.5c0 0.554-0.446 1-1 1z" opacity=".2"/>
 <g transform="translate(.9849435)">
  <path d="m9.6150565 1.25c-0.6 0-0.6 0.5143-0.6 0.5143v8.4857l1.4999995-1 1.5 1v-8.4857c0-0.5143-0.6-0.5143-0.6-0.5143z" style="fill:#2a3235"/>
  <path d="m9.6152344 1.25c-0.5999994 0-0.5996094 0.5136719-0.5996094 0.5136719v0.4785156c0.0082031-0.0984401 0.0746099-0.4921875 0.5996094-0.4921875h1.8007816s0.599609-6.276e-4 0.599609 0.5136719v-0.5c0-0.5142995-0.599609-0.5136719-0.599609-0.5136719z" style="fill:#c0c8cc;opacity:.2"/>
  <path d="m10.515625 9.25-1.5 1v0.5l1.5-1 1.5 1v-0.5z" style="opacity:.2"/>
 </g>
</svg>
