<?xml version="1.0" encoding="UTF-8"?>
<svg width="24" height="24" version="1" xmlns="http://www.w3.org/2000/svg">
 <rect transform="matrix(0,-1,-1,0,0,0)" x="-22.5" y="-20" width="20" height="16" rx="1" ry="1" style="opacity:.2"/>
 <rect transform="matrix(0,-1,-1,0,0,0)" x="-22" y="-20" width="20" height="16" rx="1" ry="1" style="fill:#2a3235"/>
 <rect transform="matrix(0,-1,-1,0,0,0)" x="-16.5" y="-18" width="12" height="10" ry="1.5" style="opacity:.2"/>
 <rect transform="matrix(0,-1,-1,0,0,0)" x="-16" y="-18" width="12" height="10" ry="1.5" style="fill:#c0c8cc"/>
 <rect transform="matrix(0,-1,-1,0,0,0)" x="-20.5" y="-16" width="12" height="10" ry="1.5" style="opacity:.2"/>
 <rect transform="matrix(0,-1,-1,0,0,0)" x="-20" y="-16" width="12" height="10" ry="1.5" style="fill:#c0c8cc"/>
 <path d="m5 2c-0.554 0-1 0.446-1 1v0.5c0-0.554 0.446-1 1-1h14c0.554 0 1 0.446 1 1v-0.5c0-0.554-0.446-1-1-1z" style="fill:#c0c8cc;opacity:.1"/>
 <rect x="7" y="10" width="8" height="1" style="fill:#40484c"/>
 <rect x="7" y="12" width="3" height="1" style="fill:#40484c"/>
 <rect x="7" y="14" width="8" height="1" style="fill:#40484c"/>
 <rect x="7" y="16" width="5" height="1" style="fill:#40484c"/>
 <rect x="9" y="5" width="6" height="1" style="fill:#40484c"/>
 <rect x="9" y="7" width="8" height="1" style="fill:#40484c"/>
 <rect x="2" y="8.5" width="20" height="2" rx=".5" ry=".5" style="opacity:.2"/>
 <rect x="2" y="8" width="20" height="2" rx=".5" ry=".5" style="fill:#3b494f"/>
</svg>
