<?xml version="1.0" encoding="UTF-8"?>
<svg xmlns="http://www.w3.org/2000/svg" width="24" height="24" version="1.1">
 <rect style="opacity:.2" width="20" height="20" x="2" y="2.5" rx="2" ry="2"/>
 <rect style="fill:#3b494f" width="20" height="20" x="2" y="2" rx="2" ry="2"/>
 <path style="stroke:#c0c8cc;stroke-linecap:round;fill:none" d="m5.5 7.5c4.5 0 2.5 4.5 6.5 4.5s2-4.5 6.5-4.5"/>
 <path style="stroke:#c0c8cc;stroke-linecap:round;fill:none" d="m5.5 16.5c4.5 0 2.5-4.5 6.5-4.5s2 4.5 6.5 4.5"/>
 <path style="opacity:.2;fill:#c0c8cc" d="m4 2c-1.108 0-2 0.892-2 2v0.5c0-1.108 0.892-2 2-2h16c1.108 0 2 0.892 2 2v-0.5c0-1.108-0.892-2-2-2h-16z"/>
</svg>
