<?xml version="1.0" encoding="UTF-8"?>
<svg xmlns="http://www.w3.org/2000/svg" width="24" height="24" version="1.1">
 <defs>
  <style id="current-color-scheme" type="text/css">
   .ColorScheme-Text { color:#2a3235; } .ColorScheme-Highlight { color:#3b494f; } .ColorScheme-NeutralText { color:#40484c; } .ColorScheme-PositiveText { color:#40484c; } .ColorScheme-NegativeText { color:#3b494f; }
  </style>
 </defs>
 <path style="fill:currentColor" class="ColorScheme-Text" d="m 11,5 c -0.55,0 -1,0.44 -1,1 v 3 l 2,2 2,-2 V 6 C 14,5.44 13.55,5 13,5 Z m -5,5 c -0.55,0 -1,0.45 -1,1 v 2 c 0,0.55 0.45,1.01 1,1 h 3 l 2,-2 -2,-2 z m 9,0 -2,2 2,2 h 3 c 0.55,0 1,-0.45 1,-1 v -2 c 0,-0.55 -0.45,-1 -1,-1 z m -3,3 -2,2 v 3 c 0,0.55 0.45,1 1,1 h 2 c 0.55,0 1,-0.45 1,-1 v -3 z"/>
</svg>
