<?xml version="1.0" encoding="UTF-8"?>
<svg xmlns="http://www.w3.org/2000/svg" width="24" height="24" version="1.1">
 <defs>
  <style id="current-color-scheme" type="text/css">
   .ColorScheme-Text { color:#2a3235; } .ColorScheme-Highlight { color:#3b494f; } .ColorScheme-NeutralText { color:#40484c; } .ColorScheme-PositiveText { color:#40484c; } .ColorScheme-NegativeText { color:#3b494f; }
  </style>
 </defs>
 <path style="fill:currentColor" class="ColorScheme-Text" d="M 5,6 C 5,6 4,6 4,7 v 10 c 0,1 1,1 1,1 h 2 l 1,1 h 7 l 1,-1 h 2 c 0,0 1,0.13 1,-1 V 7 C 19,6 18,6 18,6 Z m 1,2 h 1 v 2 H 8 V 8 h 1 v 2 h 1 V 8 h 1 v 2 h 1 V 8 h 1 v 2 h 1 V 8 h 1 v 2 h 1 V 8 h 1 v 8 h -2 l -1,1 H 9 L 8,16 H 6 Z"/>
</svg>
