<?xml version="1.0" encoding="UTF-8"?>
<svg xmlns="http://www.w3.org/2000/svg" width="24" height="24" version="1.1">
 <defs>
  <style id="current-color-scheme" type="text/css">
   .ColorScheme-Text { color:#2a3235; } .ColorScheme-Highlight { color:#3b494f; } .ColorScheme-NeutralText { color:#40484c; } .ColorScheme-PositiveText { color:#40484c; } .ColorScheme-NegativeText { color:#3b494f; }
  </style>
 </defs>
 <path style="fill:currentColor" class="ColorScheme-Text" d="M 8,5 C 7,5 7,6 7,6 v 12 c 0,0 0,1 1,1 h 8 c 1,0 1,-1 1,-1 V 6 c 0,0 0,-1 -1,-1 z m 1,3 h 6 v 8 H 9 Z m 2.5,9 h 1 c 0,0 0.5,0 0.5,0.5 0,0.5 -0.5,0.5 -0.5,0.5 h -1 C 11.5,18 11,18 11,17.5 11,17 11.5,17 11.5,17 Z"/>
</svg>
