<?xml version="1.0" encoding="UTF-8"?>
<svg xmlns="http://www.w3.org/2000/svg" width="24" height="24" version="1.1">
 <defs>
  <style id="current-color-scheme" type="text/css">
   .ColorScheme-Text { color:#2a3235; } .ColorScheme-Highlight { color:#3b494f; } .ColorScheme-NeutralText { color:#40484c; } .ColorScheme-PositiveText { color:#40484c; } .ColorScheme-NegativeText { color:#3b494f; }
  </style>
 </defs>
 <g transform="translate(4,4)">
  <path style="fill:currentColor" class="ColorScheme-Text" d="M 5,5 V 8.959 A 3.5,3.5 0 0 0 5.5,9 3.5,3.5 0 0 0 9,5.5 3.5,3.5 0 0 0 8.9609,5 Z M 10.973,5 A 5.5,5.5 0 0 1 11,5.5 5.5,5.5 0 0 1 5.5,11 5.5,5.5 0 0 1 5,10.975 V 15 H 15 V 5 Z"/>
  <path style="opacity:.35;fill:currentColor" class="ColorScheme-Text" d="M 5.5 0 A 5.5 5.5 0 0 0 0 5.5 A 5.5 5.5 0 0 0 5 10.975 L 5 5 L 10.973 5 A 5.5 5.5 0 0 0 5.5 0 z"/>
 </g>
</svg>
