<?xml version="1.0" encoding="UTF-8"?>
<svg xmlns="http://www.w3.org/2000/svg" width="24" height="24" version="1.1">
 <defs>
  <style id="current-color-scheme" type="text/css">
   .ColorScheme-Text { color:#2a3235; } .ColorScheme-Highlight { color:#3b494f; } .ColorScheme-NeutralText { color:#40484c; } .ColorScheme-PositiveText { color:#40484c; } .ColorScheme-NegativeText { color:#3b494f; }
  </style>
 </defs>
 <path style="fill:currentColor" class="ColorScheme-Text" d="M 5.25,5 C 5,5 5,5.25 5,5.25 V 10.75 C 5,11 5.25,11 5.25,11 H 10.75 C 11,11 11,10.75 11,10.75 V 5.25 C 11,5 10.75,5 10.75,5 Z M 12,6 V 8 H 19 V 6 Z M 12,9 V 10 H 17 V 9 Z M 5.25,13 C 5,13 5,13.25 5,13.25 V 18.75 C 5,19 5.25,19 5.25,19 H 10.75 C 11,19 11,18.75 11,18.75 V 13.25 C 11,13 10.75,13 10.75,13 Z M 12,14 V 16 H 19 V 14 Z M 12,17 V 18 H 17 V 17 Z"/>
</svg>
