<?xml version="1.0" encoding="UTF-8"?>
<svg xmlns="http://www.w3.org/2000/svg" width="22" height="22" version="1.1">
 <defs>
  <style id="current-color-scheme" type="text/css">
   .ColorScheme-Text { color:#2a3235; } .ColorScheme-Highlight { color:#3b494f; } .ColorScheme-NeutralText { color:#40484c; } .ColorScheme-PositiveText { color:#40484c; } .ColorScheme-NegativeText { color:#3b494f; }
  </style>
 </defs>
 <path style="fill:currentColor" class="ColorScheme-Text" d="M 11 3 A 8 8 0 0 0 3 11 A 8 8 0 0 0 11 19 A 8 8 0 0 0 19 11 A 8 8 0 0 0 11 3 z M 11 8 A 3.0000001 3.0000001 0 0 1 14 11 A 3.0000001 3.0000001 0 0 1 11 14 A 3.0000001 3.0000001 0 0 1 8 11 A 3.0000001 3.0000001 0 0 1 11 8 z M 11 9 A 2 2 0 0 0 9 11 A 2 2 0 0 0 11 13 A 2 2 0 0 0 13 11 A 2 2 0 0 0 11 9 z"/>
</svg>
