<?xml version="1.0" encoding="UTF-8"?>
<svg xmlns="http://www.w3.org/2000/svg" width="22" height="22" version="1.1">
 <defs>
  <style id="current-color-scheme" type="text/css">
   .ColorScheme-Text { color:#2a3235; } .ColorScheme-Highlight { color:#3b494f; } .ColorScheme-NeutralText { color:#40484c; } .ColorScheme-PositiveText { color:#40484c; } .ColorScheme-NegativeText { color:#3b494f; }
  </style>
 </defs>
 <path style="fill:currentColor" class="ColorScheme-Text" d="M 7,4 C 6,4 6,5 6,5 v 12 c 0,0 0,1 1,1 h 8 c 1,0 1,-1 1,-1 V 5 c 0,0 0,-1 -1,-1 z m 1,3 h 6 v 8 H 8 Z m 2.5,9 h 1 c 0,0 0.5,0 0.5,0.5 0,0.5 -0.5,0.5 -0.5,0.5 h -1 C 10.5,17 10,17 10,16.5 10,16 10.5,16 10.5,16 Z"/>
</svg>
