<?xml version="1.0" encoding="UTF-8"?>
<svg xmlns="http://www.w3.org/2000/svg" width="22" height="22" version="1.1">
 <defs>
  <style id="current-color-scheme" type="text/css">
   .ColorScheme-Text { color:#2a3235; } .ColorScheme-Highlight { color:#3b494f; } .ColorScheme-NeutralText { color:#40484c; } .ColorScheme-PositiveText { color:#40484c; } .ColorScheme-NegativeText { color:#3b494f; }
  </style>
 </defs>
 <path style="fill:currentColor;opacity:.35" class="ColorScheme-Text" d="m11 2.5-2.5 2.5h-3.5v3.5l-2.5 2.5003 2.5 2.4997v3.5h3.5l2.5 2.5 2.5-2.5h3.5v-3.5l2.5-2.5-2.5-2.5v-3.5h-3.5zm0 3.5c2.746076 0 5 2.2515118 5 5 0 2.748488-2.251512 5-5 5-2.7484882 0-5-2.251512-5-5 0-2.7484882 2.2539236-5 5-5z"/>
 <path style="fill:currentColor" class="ColorScheme-Text" d="m8 11c0-1.6566754 1.3427522-3 3-3v6c-1.6584387 0-3-1.343325-3-3z"/>
</svg>
