<?xml version="1.0" encoding="UTF-8"?>
<svg xmlns="http://www.w3.org/2000/svg" width="22" height="22" version="1.1">
 <defs>
  <style id="current-color-scheme" type="text/css">
   .ColorScheme-Text { color:#2a3235; } .ColorScheme-Highlight { color:#3b494f; } .ColorScheme-NeutralText { color:#40484c; } .ColorScheme-PositiveText { color:#40484c; } .ColorScheme-NegativeText { color:#3b494f; }
  </style>
 </defs>
 <path style="opacity:0.35;fill:currentColor" class="ColorScheme-Text" d="M 5,4 C 5,4 4,4 4,5 V 8 C 4,7 5,7 5,7 h 5 l 2,2 h 5 c 0,0 1,0 1,1 V 7 C 18,6 17,6 17,6 H 12 L 10,4 Z"/>
 <path style="fill:currentColor" class="ColorScheme-Text" d="M 5,8 C 5,8 4,8 4,9 v 7 c 0,0 0,1 1,1 h 12 c 0,0 1,0 1,-1 v -5 c 0,-1 -1,-1 -1,-1 H 12 L 10,8 Z"/>
</svg>
