<?xml version="1.0" encoding="UTF-8"?>
<svg xmlns="http://www.w3.org/2000/svg" width="22" height="22" version="1.1">
 <defs>
  <style id="current-color-scheme" type="text/css">
   .ColorScheme-Text { color:#2a3235; } .ColorScheme-Highlight { color:#3b494f; } .ColorScheme-NeutralText { color:#40484c; } .ColorScheme-PositiveText { color:#40484c; } .ColorScheme-NegativeText { color:#3b494f; }
  </style>
 </defs>
 <path style="fill:currentColor" class="ColorScheme-Text" d="m 11,3 c -4.4114286,0 -8,3.5885714 -8,8 0,4.411429 3.5885714,8 8,8 4.411429,0 8,-3.588571 8,-8 0,-4.4114286 -3.588571,-8 -8,-8 z m 0,2 c 3.32,0 6,2.68 6,6 0,3.32 -2.68,6 -6,6 C 7.6799999,17 5,14.32 5,11 5,7.68 7.6799999,5 11,5 Z m 0,2 a 4,4 0 0 0 -4,4 4,4 0 0 0 4,4 4,4 0 0 0 4,-4 4,4 0 0 0 -4,-4 z"/>
</svg>
