<?xml version="1.0" encoding="UTF-8"?>
<svg xmlns="http://www.w3.org/2000/svg" width="16" height="16" version="1.1">
 <defs>
  <style id="current-color-scheme" type="text/css">
   .ColorScheme-Text { color:#2a3235; } .ColorScheme-Highlight { color:#3b494f; } .ColorScheme-NeutralText { color:#40484c; } .ColorScheme-PositiveText { color:#40484c; } .ColorScheme-NegativeText { color:#3b494f; }
  </style>
 </defs>
 <path style="fill:currentColor" class="ColorScheme-Text" d="M 2,1 V 2 H 1 V 4 H 2 V 7 H 1 V 9 H 2 V 12 H 1 V 14 H 2 V 15 H 4 V 14 H 7 V 15 H 9 V 14 H 12 V 15 H 14 V 14 H 15 V 12 H 14 V 9 H 15 V 7 H 14 V 4 H 15 V 2 H 14 V 1 H 12 V 2 H 9 V 1 H 7 V 2 H 4 V 1 Z M 4,4 H 7 V 7 H 4 Z M 9,4 H 12 V 7 H 9 Z M 4,9 H 7 V 12 H 4 Z M 9,9 H 12 V 12 H 9 Z"/>
</svg>
