<?xml version="1.0" encoding="UTF-8"?>
<svg xmlns="http://www.w3.org/2000/svg" width="22" height="22" version="1.1">
 <defs>
  <style id="current-color-scheme" type="text/css">
   .ColorScheme-Text { color:#2a3235; } .ColorScheme-Highlight { color:#3b494f; } .ColorScheme-NeutralText { color:#40484c; } .ColorScheme-PositiveText { color:#40484c; } .ColorScheme-NegativeText { color:#3b494f; }
  </style>
 </defs>
 <path style="fill:currentColor" class="ColorScheme-Text" d="m 7,3 v 1 h 8 V 3 Z m 0,2 v 1 h 8 V 5 Z m 0,2 v 5 h 8 V 7 Z M 8,8 11,9.5 14,8 V 9 L 11,10.5 8,9 Z"/>
 <path style="fill:currentColor" class="ColorScheme-Text" d="M 5,4 C 4,4 4,5 4,5 v 12 c 0,0 0,1 1,1 h 12 c 1,0 1,-1 1,-1 V 5 c 0,0 0,-1 -1,-1 h -1 v 9 h -3 c 0,1.11 -0.89,2 -2,2 C 9.89,15 9,14.11 9,13 H 6 V 4 Z"/>
</svg>
