<?xml version="1.0" encoding="UTF-8"?>
<svg xmlns="http://www.w3.org/2000/svg" fill="none" viewBox="0 0 32 32">
  <g clip-path="url(#a)">
    <path fill="url(#b)" d="M32 2H0v28h32z"/>
    <path fill="url(#c)" d="M0 2v28h32V2H1.333zm2 2h28v24H2z"/>
    <path fill="#41474d" d="M32 29H0v1h32z"/>
    <path fill="#41474d" fill-opacity=".498" d="M2 3.955V28h28V3.955zM3 5h26v22H3z"/>
    <path fill="#3d4852" d="M23 26h-4v1h4z"/>
    <path fill="#bdc8d4" d="M28 26h-4v1h4z"/>
    <path fill="#bdc8d4" d="M25 10h-6.469c-1.216 0-1.847 0-2.287.29-.475.316-.724.97-1.244 2.335L12 20.5V19l-.713-3.5c-.16-.838-.231-1.208-.437-1.312-.162-.082-.409.001-.85.151l-3 1.017V16.5l2.85-1 .863 4.875C11 22 11.7 22 11.893 22c.354 0 1.107 0 1.607-1.375l3-8.25c.286-.785.408-1.122.647-1.267C17.327 11 17.57 11 18 11h7z"/>
    <path fill="#bdc8d4" d="M22.6 15.4c0 2.1-4.6 4.6-4.6 4.6v1h6v-1h-4s3.85-2 3.85-4.6c0-1.76-1.35-2.4-2.85-2.4s-2.85.8-2.85 2.4c.35.1.85.1 1.25 0 0-.8.6-1.4 1.6-1.4 1.2 0 1.6.6 1.6 1.4"/>
  </g>
  <defs>
    <linearGradient id="b" x1="33.333" x2="-1.255" y1="30" y2="3.647" gradientUnits="userSpaceOnUse">
      <stop stop-color="#2b3137"/>
      <stop offset="1" stop-color="#3d4852"/>
    </linearGradient>
    <linearGradient id="c" x1="16" x2="16" y1="30" y2="2" gradientUnits="userSpaceOnUse">
      <stop stop-color="#41474d"/>
      <stop offset="1" stop-color="#c1c7ce"/>
    </linearGradient>
    <clipPath id="a">
      <path fill="#bdc8d4" d="M0 0h32v32H0z"/>
    </clipPath>
  </defs>
</svg>