<?xml version="1.0" encoding="UTF-8"?>
<svg xmlns="http://www.w3.org/2000/svg" width="24" height="24" version="1.1">
 <defs>
  <style id="current-color-scheme" type="text/css">
   .ColorScheme-Text { color:#2a3235; } .ColorScheme-Highlight { color:#3b494f; } .ColorScheme-NeutralText { color:#40484c; } .ColorScheme-PositiveText { color:#40484c; } .ColorScheme-NegativeText { color:#3b494f; }
  </style>
 </defs>
 <path style="fill:currentColor" class="ColorScheme-Text" d="M 6,6 C 5,6 5,7 5,7 v 4 H 7 V 8 h 3 V 6 Z m 8,0 v 2 h 3 v 3 h 2 V 7 C 19,6 18,6 18,6 Z m -2,1 -2,4 h 4 z m -2,6 2,4 2,-4 z m -5,0 v 4 c 0,1 1,1 1,1 h 4 V 16 H 7 v -3 z m 12,0 v 3 h -3 v 2 h 4 c 0,0 1,0 1,-1 v -4 z"/>
</svg>
