<?xml version="1.0" encoding="UTF-8"?>
<svg xmlns="http://www.w3.org/2000/svg" width="24" height="24" version="1.1">
 <defs>
  <style id="current-color-scheme" type="text/css">
   .ColorScheme-Text { color:#2a3235; } .ColorScheme-Highlight { color:#3b494f; } .ColorScheme-NeutralText { color:#40484c; } .ColorScheme-PositiveText { color:#40484c; } .ColorScheme-NegativeText { color:#3b494f; }
  </style>
 </defs>
 <path style="fill:currentColor" class="ColorScheme-Text" d="M 6,17.5 A 1.5,1.5 0 0 0 7.5,19 1.5,1.5 0 0 0 9,17.5 1.5,1.5 0 0 0 7.5,16 1.5,1.5 0 0 0 6,17.5 Z m 0,-7.5 7,5 v -3 h 4 V 8 H 13 V 5 Z m 4,7.5 A 1.5,1.5 0 0 0 11.5,19 1.5,1.5 0 0 0 13,17.5 1.5,1.5 0 0 0 11.5,16 1.5,1.5 0 0 0 10,17.5 Z m 4,0 A 1.5,1.5 0 0 0 15.5,19 1.5,1.5 0 0 0 17,17.5 1.5,1.5 0 0 0 15.5,16 1.5,1.5 0 0 0 14,17.5 Z"/>
</svg>
