<?xml version="1.0" encoding="UTF-8"?>
<svg xmlns="http://www.w3.org/2000/svg" width="24" height="24" version="1.1">
 <defs>
  <style id="current-color-scheme" type="text/css">
   .ColorScheme-Text { color:#2a3235; } .ColorScheme-Highlight { color:#3b494f; } .ColorScheme-NeutralText { color:#40484c; } .ColorScheme-PositiveText { color:#40484c; } .ColorScheme-NegativeText { color:#3b494f; }
  </style>
 </defs>
 <path style="fill:currentColor" class="ColorScheme-Text" d="M 6,9 C 5.446,9 5,9.446 5,10 v 4 c 0,0.554 0.446,1 1,1 h 4 c 0.554,0 1,-0.446 1,-1 V 10 C 11,9.446 10.554,9 10,9 Z m 8,0 c -0.554,0 -1,0.446 -1,1 v 4 c 0,0.554 0.446,1 1,1 h 4 c 0.554,0 1,-0.446 1,-1 V 10 C 19,9.446 18.554,9 18,9 Z"/>
</svg>
