<?xml version="1.0" encoding="UTF-8"?>
<svg xmlns="http://www.w3.org/2000/svg" width="22" height="22" version="1.1">
 <defs>
  <style id="current-color-scheme" type="text/css">
   .ColorScheme-Text { color:#2a3235; } .ColorScheme-Highlight { color:#3b494f; } .ColorScheme-NeutralText { color:#40484c; } .ColorScheme-PositiveText { color:#40484c; } .ColorScheme-NegativeText { color:#3b494f; }
  </style>
 </defs>
 <path style="fill:currentColor" class="ColorScheme-Text" d="m 11,3 c -4.42,0 -8,3.58 -8,8 0,4.42 3.58,8 8,8 4.42,0 8,-3.58 8,-8 0,-4.42 -3.58,-8 -8,-8 z m 4.86,3.14 -3.25,6.47 -6.47,3.25 3.25,-6.47 z m -4.86,4 c -0.47,0 -0.86,0.39 -0.86,0.86 0,0.47 0.39,0.86 0.86,0.86 0.47,0 0.86,-0.39 0.86,-0.86 0,-0.47 -0.39,-0.86 -0.86,-0.86 z"/>
</svg>
