<?xml version="1.0" encoding="UTF-8"?>
<svg xmlns="http://www.w3.org/2000/svg" width="22" height="22" version="1.1">
 <defs>
  <style id="current-color-scheme" type="text/css">
   .ColorScheme-Text { color:#2a3235; } .ColorScheme-Highlight { color:#3b494f; } .ColorScheme-NeutralText { color:#40484c; } .ColorScheme-PositiveText { color:#40484c; } .ColorScheme-NegativeText { color:#3b494f; }
  </style>
 </defs>
 <path style="fill:currentColor" class="ColorScheme-Text" d="M 5.5,6 C 5.37,6 5.24,6.05 5.15,6.15 c -0.2,0.19 -0.2,0.51 0,0.7 L 7.79,9.5 5.15,12.15 c -0.2,0.19 -0.2,0.51 0,0.7 0.19,0.2 0.51,0.2 0.7,0 l 3,-3 c 0.2,-0.19 0.2,-0.51 0,-0.7 l -3,-3 C 5.76,6.05 5.63,6 5.5,6 Z m 5,6 c 0,0 -0.5,0 -0.5,0.5 0,0.5 0.5,0.5 0.5,0.5 h 3 c 0,0 0.5,0 0.5,-0.5 C 14,12 13.5,12 13.5,12 Z M 5,4 h 12 c 1.108,0 2,0.892 2,2 v 10 c 0,1.108 -0.892,2 -2,2 H 5 C 3.892,18 3,17.108 3,16 V 6 C 3,4.892 3.892,4 5,4 Z"/>
</svg>
