<?xml version="1.0" encoding="UTF-8"?>
<svg xmlns="http://www.w3.org/2000/svg" width="22" height="22" version="1.1">
 <defs>
  <style id="current-color-scheme" type="text/css">
   .ColorScheme-Text { color:#2a3235; } .ColorScheme-Highlight { color:#3b494f; } .ColorScheme-NeutralText { color:#40484c; } .ColorScheme-PositiveText { color:#40484c; } .ColorScheme-NegativeText { color:#3b494f; }
  </style>
 </defs>
 <path style="fill:currentColor" class="ColorScheme-Text" d="m 8,6 c -2.77,0 -5,2.23 -5,5 0,2.77 2.23,5 5,5 h 2 V 14 H 8 C 6.34,14 5,12.67 5,11 5,9.34 6.34,8 8,8 h 2 V 6 Z m 4,0 v 2 h 2 c 1.66,0 3,1.34 3,3 0,1.67 -1.34,3 -3,3 h -2 v 2 h 2 c 2.77,0 5,-2.23 5,-5 0,-2.77 -2.23,-5 -5,-5 z m -4,4 v 2 h 6 v -2 z"/>
</svg>
