<?xml version="1.0" encoding="UTF-8"?>
<svg xmlns="http://www.w3.org/2000/svg" width="22" height="22" version="1.1">
 <defs>
  <style id="current-color-scheme" type="text/css">
   .ColorScheme-Text { color:#2a3235; } .ColorScheme-Highlight { color:#3b494f; } .ColorScheme-NeutralText { color:#40484c; } .ColorScheme-PositiveText { color:#40484c; } .ColorScheme-NegativeText { color:#3b494f; }
  </style>
 </defs>
 <path style="fill:currentColor" class="ColorScheme-Text" d="M 7,4 C 4,4 4,6 4,7 v 8 c 0,3 2,3 3,3 h 8 c 3,0 3,-2 3,-3 V 7 C 18,4 16,4 15,4 Z m 0,2 h 8 c 0,0 1,0 1,1 v 8 c 0,0 0,1 -1,1 H 7 C 7,16 6,16 6,15 V 7 C 6,7 6,6 7,6 Z"/>
</svg>
