<?xml version="1.0" encoding="UTF-8"?>
<svg xmlns="http://www.w3.org/2000/svg" width="24" height="24" version="1.1">
 <defs>
  <style id="current-color-scheme" type="text/css">
   .ColorScheme-Text { color:#2a3235; } .ColorScheme-Highlight { color:#3b494f; } .ColorScheme-NeutralText { color:#40484c; } .ColorScheme-PositiveText { color:#40484c; } .ColorScheme-NegativeText { color:#3b494f; }
  </style>
 </defs>
 <path style="opacity:0.35;fill:currentColor" class="ColorScheme-Text" d="M 6,5 C 6,5 5,5 5,6 v 5 c 0,-1 1,-1 1,-1 h 5 l 2,2 h 5 c 0,0 1,0 1,1 V 8 C 19,7 18,7 18,7 H 13 L 11,5 Z"/>
 <path style="fill:currentColor" class="ColorScheme-Text" d="m 6,11 c 0,0 -1,0 -1,1 v 5 c 0,0 0,1 1,1 h 12 c 0,0 1,0 1,-1 v -3 c 0,-1 -1,-1 -1,-1 h -5 l -2,-2 z"/>
</svg>
