<?xml version="1.0" encoding="UTF-8"?>
<svg xmlns="http://www.w3.org/2000/svg" width="24" height="24" version="1.1">
 <defs>
  <style id="current-color-scheme" type="text/css">
   .ColorScheme-Text { color:#2a3235; } .ColorScheme-Highlight { color:#3b494f; } .ColorScheme-NeutralText { color:#40484c; } .ColorScheme-PositiveText { color:#40484c; } .ColorScheme-NegativeText { color:#3b494f; }
  </style>
 </defs>
 <path style="fill:currentColor" class="ColorScheme-Text" d="m 7,17 v -2 h 4 c 0.554,0 1,-0.45 1,-1 v -4 c 0,-1.66 1.338,-3 3,-3 h 4 v 2 h -4 c -0.554,0 -1,0.45 -1,1 v 4 c 0,1.66 -1.338,3 -3,3 z"/>
 <path style="fill:currentColor" class="ColorScheme-Text" d="m 7,7 v 2 h 3.623 C 10.792,8.2702 11.1462,7.6156 11.625,7.0664 11.4231,7.0238 11.2149,7 11,7 Z m 8.377,8 c -0.169,0.73 -0.523,1.384 -1.002,1.934 C 14.577,16.976 14.785,17 15,17 h 4 v -2 z"/>
 <path style="fill:currentColor" class="ColorScheme-Text" d="m 8,5 v 6 L 4,8 Z"/>
 <path style="fill:currentColor" class="ColorScheme-Text" d="m 8,13 v 6 L 4,16 Z"/>
</svg>
