<?xml version="1.0" encoding="UTF-8"?>
<svg xmlns="http://www.w3.org/2000/svg" width="16" height="16" version="1.1">
 <defs>
  <style id="current-color-scheme" type="text/css">
   .ColorScheme-Text { color:#2a3235; } .ColorScheme-Highlight { color:#3b494f; } .ColorScheme-NeutralText { color:#40484c; } .ColorScheme-PositiveText { color:#40484c; } .ColorScheme-NegativeText { color:#3b494f; }
  </style>
 </defs>
 <path style="fill:currentColor" class="ColorScheme-Text" d="M 8,2 A 7,6 0 0 0 1,8 7,6 0 0 0 8,14 7,6 0 0 0 15,8 7,6 0 0 0 8,2 Z M 8,4 A 5,4 0 0 1 13,8 5,4 0 0 1 8,12 5,4 0 0 1 3,8 5,4 0 0 1 8,4 Z"/>
</svg>
