<?xml version="1.0" encoding="UTF-8"?>
<svg xmlns="http://www.w3.org/2000/svg" width="16" height="16" version="1.1">
 <defs>
  <style id="current-color-scheme" type="text/css">
   .ColorScheme-Text { color:#2a3235; } .ColorScheme-Highlight { color:#3b494f; } .ColorScheme-NeutralText { color:#40484c; } .ColorScheme-PositiveText { color:#40484c; } .ColorScheme-NegativeText { color:#3b494f; }
  </style>
 </defs>
 <path style="fill:currentColor" class="ColorScheme-Text" d="M 4,1 C 1,1 1,3 1,4 V 12 C 1,15 3,15 4,15 H 12 C 15,15 15,13 15,12 V 4 C 15,1 13,1 12,1 Z M 4,3 H 12 C 12,3 13,3 13,4 V 12 C 13,12 13,13 12,13 H 4 C 4,13 3,13 3,12 V 4 C 3,4 3,3 4,3 Z"/>
</svg>
