<?xml version="1.0" encoding="UTF-8"?>
<svg xmlns="http://www.w3.org/2000/svg" width="48" height="48" version="1">
 <path fill="#c0c8cc" d="m4 14v20h9.0912l10.909 10v-40l-10.909 10z"/>
 <path opacity=".2" d="m4 34v1h9.0918l10.908 10v-1l-10.908-10z"/>
 <path fill="#c0c8cc" opacity=".2" d="m24 4-10.908 10h-9.092v1h9.092l10.908-10z"/>
 <circle fill="#3b494f" cx="28" cy="36" r="10"/>
 <path opacity=".2" d="m37.979 36.414a10 10 0 0 1 -9.979 9.586 10 10 0 0 1 -9.979 -9.414 10 10 0 0 0 -0.021 0.414 10 10 0 0 0 10 10 10 10 0 0 0 10 -10 10 10 0 0 0 -0.021 -0.586z"/>
 <g fill="#c0c8cc" transform="matrix(.70711 -.70711 .70711 .70711 -21.497 34.846)">
  <rect width="12" height="2" x="28" y="35"/>
  <rect width="12" height="2" x="-42" y="33" transform="rotate(-90)"/>
 </g>
</svg>
